<svg xmlns="http://www.w3.org/2000/svg" xmlns:xlink="http://www.w3.org/1999/xlink" width="416" height="20" viewBox="0 0 416 20">
  <defs>
    <clipPath id="clip-path">
      <rect id="Rectangle_11" data-name="Rectangle 11" width="80" height="20" transform="translate(0 0)" fill="#99762c"/>
    </clipPath>
  </defs>
  <g id="border-design" transform="translate(0 -0.139)">
    <g id="Group_44" data-name="Group 44" transform="translate(176 0.139)">
      <g id="Group_43" data-name="Group 43" clip-path="url(#clip-path)">
        <path id="Path_15" data-name="Path 15" d="M134.32,15.588a12.733,12.733,0,0,0,.749-1.052,4.662,4.662,0,0,0,.464-1.39l.015-.1.016-.154c.012-.107.016-.214.021-.322a5.568,5.568,0,0,0-.016-.641c-.04-.417-.105-.817-.165-1.247l0-.019c-.441.093-.868.181-1.295.282-.214.054-.427.111-.635.174l-.156.048-.1.033-.165.06a7.783,7.783,0,0,0-1.229.582,3.913,3.913,0,0,0-1.7,1.75,1.751,1.751,0,0,0-.106,1,1.7,1.7,0,0,0,.279.643,2.093,2.093,0,0,0,.376.407,2.97,2.97,0,0,1-.114-.51,1.262,1.262,0,0,1,.344-1.089,4.014,4.014,0,0,1,1.569-.832c.341-.113.711-.216,1.1-.314l.148-.036c.018,0,.064-.016.06-.013l0,0a.024.024,0,0,1,.006.01.015.015,0,0,1,0,.012.019.019,0,0,1,.01-.006.024.024,0,0,1,.013,0l.007,0s0,0,0,.008l0,.065a4.8,4.8,0,0,1-.159,1.015,5.107,5.107,0,0,1-.347.917,2.526,2.526,0,0,1-.441.68,1.55,1.55,0,0,1-1.067.544,1.619,1.619,0,0,1-.512-.065,1.363,1.363,0,0,0,.45.338,1.568,1.568,0,0,0,.7.151,2.226,2.226,0,0,0,.943-.228,3.015,3.015,0,0,0,.938-.711" transform="translate(-75.192 -6.331)" fill="#99762c"/>
        <path id="Path_16" data-name="Path 16" d="M161.389,14.93a4.146,4.146,0,0,0-1.017-1.955,6.558,6.558,0,0,0-1.9-1.477,6.058,6.058,0,0,0-.592-.266c-.189-.07-.392-.153-.606-.218a9.5,9.5,0,0,0-1.3-.3,14.9,14.9,0,0,0-2.785-.169,16.333,16.333,0,0,0-2.98.356,12.281,12.281,0,0,0-1.54.435c-.5.178-1,.373-1.494.577-.994.411-2,.86-3.023,1.349-.512.245-1.029.5-1.551.773l-.246.132c-.233.381-1.494,1.6-1.581,1.861.875-.174,1.768.017,1.917-.076.231-.145.468-.285.707-.424.477-.276.961-.541,1.441-.8.961-.512,1.914-.991,2.847-1.431.466-.219.929-.429,1.382-.617a11.216,11.216,0,0,1,1.341-.468,15.354,15.354,0,0,1,2.707-.489,10.613,10.613,0,0,1,4.85.51,5.82,5.82,0,0,1,1.775,1.149,3.72,3.72,0,0,1,1.032,1.559,1.751,1.751,0,0,1-.215,1.536,2.52,2.52,0,0,1-.532.556,2.785,2.785,0,0,1-.622.388,1.973,1.973,0,0,1-2.223-.332.85.85,0,0,1-.245-.773.95.95,0,0,1,.356-.508,2.008,2.008,0,0,1,.463-.263,2.032,2.032,0,0,0-.478.217,1.035,1.035,0,0,0-.43.5.955.955,0,0,0,.17.9,2.2,2.2,0,0,0,2.433.631,3.074,3.074,0,0,0,.742-.36,3.18,3.18,0,0,0,.68-.577,2.266,2.266,0,0,0,.476-.867,2.385,2.385,0,0,0,.045-1.058" transform="translate(-81.428 -6.254)" fill="#99762c"/>
        <path id="Path_17" data-name="Path 17" d="M18.011,15.508c.242.14.484.284.719.43a19.12,19.12,0,0,0,2.213.259s-.811-1.158-1.308-1.729a2.418,2.418,0,0,0-.776-.424c-.513-.269-1.022-.521-1.526-.764-1.009-.483-2-.928-2.983-1.336-.491-.2-.979-.4-1.475-.576a12.615,12.615,0,0,0-1.522-.446,16.26,16.26,0,0,0-2.961-.379,15.174,15.174,0,0,0-2.778.141,10.135,10.135,0,0,0-1.305.279c-.21.063-.426.134-.617.211a6.383,6.383,0,0,0-.591.248,6.582,6.582,0,0,0-1.945,1.438,4.342,4.342,0,0,0-1.09,1.929,2.462,2.462,0,0,0-.015,1.066,2.22,2.22,0,0,0,.431.905,2.98,2.98,0,0,0,.67.612,3.186,3.186,0,0,0,.739.387,2.471,2.471,0,0,0,1.469.079A1.924,1.924,0,0,0,4.386,17.2a.983.983,0,0,0,.21-.912,1.015,1.015,0,0,0-.427-.52,2.037,2.037,0,0,0-.49-.226,2.06,2.06,0,0,1,.452.254.967.967,0,0,1,.36.491.827.827,0,0,1-.209.767,1.945,1.945,0,0,1-2.176.4,2.634,2.634,0,0,1-.624-.362,2.722,2.722,0,0,1-.55-.534,1.739,1.739,0,0,1-.3-1.509A3.521,3.521,0,0,1,1.6,13.471,5.8,5.8,0,0,1,3.34,12.283a10.264,10.264,0,0,1,4.84-.576,15.337,15.337,0,0,1,2.73.47,11.062,11.062,0,0,1,1.357.457c.457.187.924.4,1.4.618.943.443,1.909.927,2.885,1.446.488.26.978.529,1.464.81" transform="translate(0 -6.252)" fill="#99762c"/>
        <path id="Path_18" data-name="Path 18" d="M61.055,11.533a1.919,1.919,0,0,0,.418.187,2.943,2.943,0,0,1-.211-.377,1.6,1.6,0,0,1-.137-.977,2.688,2.688,0,0,1,.635-1.184,6.393,6.393,0,0,1,.587-.606l.168-.149.043-.037c.007,0,0,0,.006,0l0,0a.014.014,0,0,1,.006.009V8.394c0-.011.017-.03.054-.024a6.429,6.429,0,0,1,.417.66,1.667,1.667,0,0,1,.212,1.148,3.764,3.764,0,0,1-.331.951l-.182.36a3.38,3.38,0,0,0,.37-.183,2.961,2.961,0,0,0,.9-.766,2.241,2.241,0,0,0,.4-.831,2.644,2.644,0,0,0,.019-1.1,4.5,4.5,0,0,0-.344-1.054c-.284-.566-.642-1.131-1.007-1.724l-.61.389a6.521,6.521,0,0,0-.85.628c-.067.058-.132.12-.2.181l-.093.091-.053.056c-.07.075-.137.153-.2.231a4.578,4.578,0,0,0-.628,1,2.952,2.952,0,0,0-.222,2.056,1.846,1.846,0,0,0,.825,1.067" transform="translate(-34.783 -3.526)" fill="#99762c"/>
        <path id="Path_19" data-name="Path 19" d="M73.178,17.227l.152-.2.074-.106.036-.054.056-.093a6.729,6.729,0,0,0,.423-.831c.118-.287.228-.574.344-.88l-.556-.258a7.386,7.386,0,0,0-.944-.377c-.081-.026-.162-.052-.248-.073l-.126-.033L72.31,14.3c-.1-.018-.2-.037-.3-.048a3.636,3.636,0,0,0-1.2.038,2.791,2.791,0,0,0-1.04.441,2.418,2.418,0,0,0-.656.7,2.571,2.571,0,0,0-.366,1.192,3.159,3.159,0,0,0,.006.433s.09-.128.257-.333a2.988,2.988,0,0,1,.763-.68,1.924,1.924,0,0,1,1.188-.242,3.825,3.825,0,0,1,.726.143l.195.058.046.016,0,0a.006.006,0,0,0,0,.005.013.013,0,0,1-.005.009l.005,0c.011,0,.034,0,.05.028,0,0,0,0,0,.011l-.021.049-.041.1-.083.19-.168.367a6.209,6.209,0,0,1-.688,1.176,1.409,1.409,0,0,1-.7.529,1.14,1.14,0,0,1-.372.037.962.962,0,0,0,.352.224,1.641,1.641,0,0,0,1.212-.1,4.223,4.223,0,0,0,1.4-1.038q.164-.177.318-.375" transform="translate(-39.765 -8.394)" fill="#99762c"/>
        <path id="Path_20" data-name="Path 20" d="M70.716,28.2a2.72,2.72,0,0,1-.813.063A1.089,1.089,0,0,1,69.339,28a2.747,2.747,0,0,1-.2-.2,1.27,1.27,0,0,0-.049.3,1.3,1.3,0,0,0,.3.866,2.259,2.259,0,0,0,1.207.714,4.144,4.144,0,0,0,1.067.1c.43,0,.9-.011,1.374-.036l-.02-.212a7.769,7.769,0,0,0-.2-1.264,4.432,4.432,0,0,0-.226-.6c-.045-.094-.093-.188-.141-.274a1.929,1.929,0,0,0-.114-.169,2.72,2.72,0,0,0-1.048-.889,1.5,1.5,0,0,0-.927-.133,1.008,1.008,0,0,0-.3.113,1.593,1.593,0,0,1,.246.162,1.458,1.458,0,0,1,.4.54,4.362,4.362,0,0,1,.272.88.8.8,0,0,1,.022.117.07.07,0,0,1-.019.025.077.077,0,0,1-.039.024.053.053,0,0,1-.043,0h0a.063.063,0,0,1,.021.049c-.009.026.033.069-.2.1" transform="translate(-39.963 -15.331)" fill="#99762c"/>
        <path id="Path_21" data-name="Path 21" d="M46.568,12.9l.016.154.015.1a4.674,4.674,0,0,0,.464,1.39,4.745,4.745,0,0,0,.749,1.052,3.024,3.024,0,0,0,.938.711,2.228,2.228,0,0,0,.944.228,1.57,1.57,0,0,0,.7-.151,1.352,1.352,0,0,0,.449-.338,1.619,1.619,0,0,1-.512.065,1.551,1.551,0,0,1-1.067-.544,2.537,2.537,0,0,1-.441-.68,5.108,5.108,0,0,1-.347-.917,4.8,4.8,0,0,1-.158-1.015l0-.065c0-.011,0,0,0-.008l.008,0a.023.023,0,0,1,.012,0,.019.019,0,0,1,.01.006.016.016,0,0,1,0-.012.022.022,0,0,1,.006-.01l0,0s.042.009.06.013l.148.036c.39.1.76.2,1.1.314a4.012,4.012,0,0,1,1.569.832,1.265,1.265,0,0,1,.344,1.089,2.955,2.955,0,0,1-.115.51,2.093,2.093,0,0,0,.376-.407,1.708,1.708,0,0,0,.279-.643,1.759,1.759,0,0,0-.106-1,3.909,3.909,0,0,0-1.7-1.75,7.8,7.8,0,0,0-1.229-.582l-.165-.06-.1-.033-.156-.048c-.209-.063-.421-.12-.635-.174-.427-.1-.854-.189-1.3-.282l0,.019c-.059.43-.125.829-.165,1.247a5.574,5.574,0,0,0-.016.641c.005.108.009.215.022.322" transform="translate(-26.923 -6.331)" fill="#99762c"/>
        <path id="Path_22" data-name="Path 22" d="M41.945,28.58a5.054,5.054,0,0,1-2.012-.435,5.3,5.3,0,0,1-1.019-.572c-.079-.057-.156-.118-.229-.179l-.048-.042s0,0,0-.005l0-.005c0-.005.009-.006.009-.005h0a.014.014,0,0,1-.01-.008V27.32s-.019.007.045-.035l.27-.169a11.107,11.107,0,0,1,1.1-.58,6.611,6.611,0,0,1,2-.609,1.905,1.905,0,0,1,1.326.275,1.831,1.831,0,0,1,.4.392,1.535,1.535,0,0,0-.193-.574,1.77,1.77,0,0,0-.513-.561,2.71,2.71,0,0,0-.938-.413,5.59,5.59,0,0,0-2.56.068,7.513,7.513,0,0,0-1.42.492c-.119.056-.239.115-.359.18-.04.02-.167.093-.265.156s-.2.13-.3.2a9.574,9.574,0,0,0-1.047.925l.106.167a5.7,5.7,0,0,0,.831,1.122c.086.086.177.168.27.246l.14.113.1.07c.121.086.244.164.368.237a5.219,5.219,0,0,0,1.5.573,4.831,4.831,0,0,0,2.638-.133,2.8,2.8,0,0,0,1.406-1.04,1.982,1.982,0,0,0,.262-.553,2.525,2.525,0,0,1-.459.353,2.739,2.739,0,0,1-1.39.362" transform="translate(-20.925 -14.608)" fill="#99762c"/>
        <path id="Path_23" data-name="Path 23" d="M88.048,16.629a3.926,3.926,0,0,0-2.185-1.966,3.2,3.2,0,0,0-2.4.1,2.15,2.15,0,0,0-.7.529,1.552,1.552,0,0,0-.48.746,1.577,1.577,0,0,0,.008.885,1.43,1.43,0,0,0,.744.876,1.746,1.746,0,0,0,.371.126,1.821,1.821,0,0,1-.33-.192,1.313,1.313,0,0,1-.261-.262c-.03-.056-.072-.14-.122-.258a2.2,2.2,0,0,1-.134-.471,1.155,1.155,0,0,1,.662-1.1,1.678,1.678,0,0,1,.891-.092,2.025,2.025,0,0,1,.918.42,3.4,3.4,0,0,1,1.18,2.041,2.4,2.4,0,0,1,.027.606,1.718,1.718,0,0,1-.048.279c-.029.112-.062.223-.1.333a3.489,3.489,0,0,1-.666,1.186,4.962,4.962,0,0,1-2.644,1.4,4.221,4.221,0,0,1-1.533.013,7.741,7.741,0,0,1-1.658-.465,7.422,7.422,0,0,1-4.5-4.5,5.3,5.3,0,0,1-.2-1.429A4.549,4.549,0,0,1,75.1,14.1a5.612,5.612,0,0,1,1.279-2.188,4.949,4.949,0,0,1,1.771-1.2,5.159,5.159,0,0,1,1.642-.348,6.741,6.741,0,0,1,1.476.1,6,6,0,0,0-1.466-.377,5.261,5.261,0,0,0-1.819.085,5.426,5.426,0,0,0-2.214,1.086,6.358,6.358,0,0,0-1.824,2.421,5.612,5.612,0,0,0-.443,1.7,6.4,6.4,0,0,0,.106,1.853,7.268,7.268,0,0,0,1.86,3.47,9.7,9.7,0,0,0,3.448,2.336,8.753,8.753,0,0,0,2.08.557,5.652,5.652,0,0,0,2.215-.107,8.031,8.031,0,0,0,1.875-.777,5.094,5.094,0,0,0,1.533-1.347,4.763,4.763,0,0,0,.806-1.754c.035-.149.063-.3.087-.444a3.005,3.005,0,0,0,.035-.5,3.556,3.556,0,0,0-.135-.915,4.311,4.311,0,0,0-1.879-2.512,2.96,2.96,0,0,0-.3-.155,2.885,2.885,0,0,1,.41.144,3.289,3.289,0,0,1,1.663,1.761,5.284,5.284,0,0,1,.367,1.356,4.655,4.655,0,0,1-1.427,4.188,7.271,7.271,0,0,1-2.935,1.747,8.249,8.249,0,0,1-3.443.332,9.338,9.338,0,0,1-3.123-.971,10.387,10.387,0,0,1-4.161-3.74c-.069-.112-.128-.223-.19-.334a7.51,7.51,0,0,0,.534-3.32,7.309,7.309,0,0,0-.253-1.441,8.114,8.114,0,0,1,.064,1.444,7.55,7.55,0,0,1-.653,2.706,7.554,7.554,0,0,1-.654-2.706A8.081,8.081,0,0,1,71.5,14.8a7.31,7.31,0,0,0-.253,1.441,7.511,7.511,0,0,0,.534,3.32c-.062.112-.12.222-.19.334a10.39,10.39,0,0,1-4.161,3.74,9.337,9.337,0,0,1-3.124.971,8.248,8.248,0,0,1-3.443-.332,7.27,7.27,0,0,1-2.934-1.747A4.66,4.66,0,0,1,56.5,18.337a5.3,5.3,0,0,1,.368-1.356,3.29,3.29,0,0,1,1.662-1.761,2.9,2.9,0,0,1,.411-.144,2.965,2.965,0,0,0-.3.155,4.31,4.31,0,0,0-1.879,2.512,3.557,3.557,0,0,0-.135.915,3.005,3.005,0,0,0,.035.5c.024.147.052.3.086.444a4.771,4.771,0,0,0,.806,1.754,5.1,5.1,0,0,0,1.532,1.347,8.049,8.049,0,0,0,1.875.777,5.652,5.652,0,0,0,2.215.107,8.747,8.747,0,0,0,2.08-.557A9.694,9.694,0,0,0,68.7,20.7a7.268,7.268,0,0,0,1.86-3.47,6.419,6.419,0,0,0,.106-1.853,5.612,5.612,0,0,0-.443-1.7A6.358,6.358,0,0,0,68.4,11.254a5.423,5.423,0,0,0-2.214-1.086,5.261,5.261,0,0,0-1.819-.085,6,6,0,0,0-1.466.377,6.745,6.745,0,0,1,1.476-.1,5.159,5.159,0,0,1,1.642.348,4.949,4.949,0,0,1,1.771,1.2A5.613,5.613,0,0,1,69.073,14.1a4.563,4.563,0,0,1,.215,1.34,5.286,5.286,0,0,1-.2,1.429,7.421,7.421,0,0,1-4.5,4.5,7.724,7.724,0,0,1-1.658.465,4.221,4.221,0,0,1-1.533-.013,4.962,4.962,0,0,1-2.644-1.4,3.489,3.489,0,0,1-.666-1.186c-.036-.11-.069-.22-.1-.333a1.674,1.674,0,0,1-.049-.279,2.42,2.42,0,0,1,.027-.606,3.4,3.4,0,0,1,1.179-2.041,2.023,2.023,0,0,1,.918-.42,1.678,1.678,0,0,1,.891.092,1.155,1.155,0,0,1,.662,1.1,2.2,2.2,0,0,1-.134.471c-.049.118-.092.2-.122.258a1.314,1.314,0,0,1-.261.262,1.812,1.812,0,0,1-.33.192,1.746,1.746,0,0,0,.371-.126,1.43,1.43,0,0,0,.744-.876,1.577,1.577,0,0,0,.008-.885,1.552,1.552,0,0,0-.48-.746,2.15,2.15,0,0,0-.7-.529,3.2,3.2,0,0,0-2.4-.1,3.926,3.926,0,0,0-2.185,1.966,5.928,5.928,0,0,0-.535,1.55,5.69,5.69,0,0,0-.109,1.751A5.833,5.833,0,0,0,57.1,23.318a8.026,8.026,0,0,0,3.4,2.093,8.9,8.9,0,0,0,3.959.328,9.8,9.8,0,0,0,3.457-1.218,10.5,10.5,0,0,0,4.176-4.284,10.5,10.5,0,0,0,4.175,4.284,9.809,9.809,0,0,0,3.457,1.218,8.9,8.9,0,0,0,3.959-.328,8.023,8.023,0,0,0,3.4-2.093,5.833,5.833,0,0,0,1.616-3.388,5.69,5.69,0,0,0-.109-1.751,5.944,5.944,0,0,0-.535-1.55" transform="translate(-32.079 -5.967)" fill="#99762c"/>
        <path id="Path_24" data-name="Path 24" d="M119.826,10.541a2.957,2.957,0,0,0,.9.765,3.152,3.152,0,0,0,.37.183l-.182-.36a3.774,3.774,0,0,1-.331-.951,1.667,1.667,0,0,1,.212-1.147,6.426,6.426,0,0,1,.416-.661c.037-.005.052.013.054.024l0,.007a.015.015,0,0,1,.006-.009l0,0s0,0,.005,0l.043.037.168.149a6.344,6.344,0,0,1,.587.606,2.685,2.685,0,0,1,.634,1.184,1.6,1.6,0,0,1-.137.977,2.982,2.982,0,0,1-.211.377,1.923,1.923,0,0,0,.417-.187,1.848,1.848,0,0,0,.826-1.067,2.955,2.955,0,0,0-.223-2.057,4.582,4.582,0,0,0-.628-1c-.064-.078-.131-.155-.2-.231l-.053-.056-.092-.091c-.064-.061-.129-.123-.2-.181a6.508,6.508,0,0,0-.85-.628l-.611-.389c-.365.593-.723,1.158-1.007,1.724a4.454,4.454,0,0,0-.344,1.053,2.638,2.638,0,0,0,.019,1.1,2.247,2.247,0,0,0,.4.831" transform="translate(-69.043 -3.526)" fill="#99762c"/>
        <path id="Path_25" data-name="Path 25" d="M110.234,14.254c-.1.011-.2.031-.3.048l-.078.017-.126.033c-.086.021-.167.047-.248.073a7.356,7.356,0,0,0-.944.377l-.557.257c.117.307.227.594.344.881a6.754,6.754,0,0,0,.423.832l.056.093.036.054.074.106.151.2c.1.132.209.257.318.375a4.216,4.216,0,0,0,1.4,1.039,1.641,1.641,0,0,0,1.212.1.962.962,0,0,0,.351-.224,1.14,1.14,0,0,1-.372-.037,1.413,1.413,0,0,1-.7-.529,6.29,6.29,0,0,1-.688-1.176l-.168-.367-.083-.19-.041-.1-.021-.049c0-.011,0-.008,0-.011.016-.031.039-.031.049-.028l.005,0a.014.014,0,0,1-.005-.009s0,0,0-.005l0,0L110.36,16l.195-.058a3.819,3.819,0,0,1,.726-.143,1.924,1.924,0,0,1,1.188.242,3,3,0,0,1,.763.68c.167.2.254.335.257.333a3.16,3.16,0,0,0,.006-.433,2.57,2.57,0,0,0-.366-1.192,2.418,2.418,0,0,0-.656-.7,2.791,2.791,0,0,0-1.04-.441,3.625,3.625,0,0,0-1.2-.038" transform="translate(-62.461 -8.394)" fill="#99762c"/>
        <path id="Path_26" data-name="Path 26" d="M113.7,27.012a1.458,1.458,0,0,1,.4-.54,1.593,1.593,0,0,1,.246-.162,1,1,0,0,0-.3-.113,1.5,1.5,0,0,0-.927.133,2.723,2.723,0,0,0-1.048.889,1.928,1.928,0,0,0-.114.169c-.048.086-.1.18-.141.274a4.375,4.375,0,0,0-.226.6,7.719,7.719,0,0,0-.2,1.264l-.02.212c.472.025.943.034,1.373.036a4.146,4.146,0,0,0,1.067-.1,2.262,2.262,0,0,0,1.207-.715,1.3,1.3,0,0,0,.3-.866,1.261,1.261,0,0,0-.048-.3,2.748,2.748,0,0,1-.2.2,1.089,1.089,0,0,1-.564.267,2.717,2.717,0,0,1-.813-.063c-.231-.028-.189-.07-.2-.1a.062.062,0,0,1,.021-.049h0a.054.054,0,0,1-.043,0,.077.077,0,0,1-.039-.024.07.07,0,0,1-.019-.025.8.8,0,0,1,.022-.117,4.389,4.389,0,0,1,.272-.88" transform="translate(-64.422 -15.331)" fill="#99762c"/>
        <path id="Path_27" data-name="Path 27" d="M141.837,25.941c-.1-.063-.225-.136-.265-.156-.12-.065-.24-.124-.359-.18a7.573,7.573,0,0,0-1.42-.492,5.589,5.589,0,0,0-2.56-.068,2.7,2.7,0,0,0-.938.413,1.771,1.771,0,0,0-.513.561,1.532,1.532,0,0,0-.193.574,1.834,1.834,0,0,1,.4-.392,1.9,1.9,0,0,1,1.326-.274,6.6,6.6,0,0,1,2,.608,11.078,11.078,0,0,1,1.1.58l.269.169c.064.041.042.03.045.035l0,.006a.013.013,0,0,1-.01.008h0s0,0,.008.006l0,.005s0,0,0,.005l-.048.042c-.074.062-.151.122-.229.18a5.3,5.3,0,0,1-1.019.572,5.063,5.063,0,0,1-2.012.435,2.732,2.732,0,0,1-1.39-.362,2.562,2.562,0,0,1-.459-.353,1.982,1.982,0,0,0,.262.553,2.8,2.8,0,0,0,1.406,1.04,4.835,4.835,0,0,0,2.638.133,5.239,5.239,0,0,0,1.5-.573c.124-.073.247-.151.368-.237l.1-.071.139-.113c.094-.078.185-.16.27-.246a5.71,5.71,0,0,0,.831-1.122l.106-.167a9.632,9.632,0,0,0-1.048-.925c-.1-.068-.2-.136-.3-.2" transform="translate(-78.418 -14.608)" fill="#99762c"/>
        <path id="Path_28" data-name="Path 28" d="M91.4,8.349a2.3,2.3,0,0,0,.638.215,2.956,2.956,0,0,1-.465-.436,2.591,2.591,0,0,1-.58-1.453A5.788,5.788,0,0,1,91.3,4.393a8.7,8.7,0,0,1,.52-1.262l.081-.155c.019-.032.017-.022.021-.026a.018.018,0,0,1,.012,0,.015.015,0,0,1,.006.01h0a.016.016,0,0,1,.007-.012s0-.008.017,0,0,0,.015.017l.049.076.1.151a7.384,7.384,0,0,1,.615,1.18,3.7,3.7,0,0,1,.244,2.144,4.806,4.806,0,0,1-.609,1.507c-.209.348-.349.536-.346.537a4.744,4.744,0,0,0,.551-.351A4.258,4.258,0,0,0,93.82,6.836a3.8,3.8,0,0,0,.432-1.292A4.569,4.569,0,0,0,94.2,3.967a6.477,6.477,0,0,0-.563-1.595l-.1-.193-.051-.1-.09-.153c-.127-.216-.277-.447-.426-.661-.3-.432-.62-.839-.946-1.27l-.129.134a11.52,11.52,0,0,0-.982,1.088,5.432,5.432,0,0,0-.411.672c-.062.112-.122.244-.163.331l-.087.208a7.11,7.11,0,0,0-.431,1.638,5.429,5.429,0,0,0,.3,2.844A2.781,2.781,0,0,0,91.4,8.349" transform="translate(-51.918 -0.139)" fill="#99762c"/>
        <path id="Path_29" data-name="Path 29" d="M94,13.038a.61.61,0,0,0,0,1.219.61.61,0,0,0,0-1.219" transform="translate(-54.03 -7.707)" fill="#99762c"/>
        <path id="Path_30" data-name="Path 30" d="M65.544,24.657a.616.616,0,0,0-.612.609v.087a.612.612,0,0,0,1.225,0v-.087a.616.616,0,0,0-.613-.609" transform="translate(-37.56 -14.452)" fill="#99762c"/>
        <path id="Path_31" data-name="Path 31" d="M5.607,23a.61.61,0,0,0,0,1.219.61.61,0,0,0,0-1.219" transform="translate(-2.901 -13.488)" fill="#99762c"/>
        <path id="Path_32" data-name="Path 32" d="M48.35,29.222a.61.61,0,0,0,0,1.219.61.61,0,0,0,0-1.219" transform="translate(-27.626 -17.101)" fill="#99762c"/>
        <path id="Path_33" data-name="Path 33" d="M54.165,18.847a.44.44,0,0,0-.438.435v.087a.438.438,0,0,0,.875,0v-.087a.441.441,0,0,0-.438-.435" transform="translate(-31.078 -11.079)" fill="#99762c"/>
        <path id="Path_34" data-name="Path 34" d="M64.627,15.32H64.54a.435.435,0,1,0,0,.871h.087a.435.435,0,1,0,0-.871" transform="translate(-37.08 -9.032)" fill="#99762c"/>
        <path id="Path_35" data-name="Path 35" d="M72.237,19.47a.435.435,0,0,0,0,.871.435.435,0,0,0,0-.871" transform="translate(-41.54 -11.441)" fill="#99762c"/>
        <path id="Path_36" data-name="Path 36" d="M70.576,28.185a.435.435,0,0,0,0,.871.435.435,0,0,0,0-.871" transform="translate(-40.58 -16.5)" fill="#99762c"/>
        <path id="Path_37" data-name="Path 37" d="M122.825,24.657a.616.616,0,0,1,.612.609v.087a.612.612,0,0,1-1.224,0v-.087a.616.616,0,0,1,.612-.609" transform="translate(-70.694 -14.452)" fill="#99762c"/>
        <path id="Path_38" data-name="Path 38" d="M182.817,23a.61.61,0,0,1,0,1.219.61.61,0,0,1,0-1.219" transform="translate(-105.408 -13.488)" fill="#99762c"/>
        <path id="Path_39" data-name="Path 39" d="M140.074,29.222a.61.61,0,0,1,0,1.219.61.61,0,0,1,0-1.219" transform="translate(-80.683 -17.101)" fill="#99762c"/>
        <path id="Path_40" data-name="Path 40" d="M134.684,18.847a.441.441,0,0,1,.438.435v.087a.437.437,0,0,1-.875,0v-.087a.44.44,0,0,1,.437-.435" transform="translate(-77.655 -11.079)" fill="#99762c"/>
        <path id="Path_41" data-name="Path 41" d="M124.1,15.32h.087a.435.435,0,1,1,0,.871H124.1a.435.435,0,1,1,0-.871" transform="translate(-71.534 -9.032)" fill="#99762c"/>
        <path id="Path_42" data-name="Path 42" d="M116.653,19.47a.435.435,0,0,1,0,.871.435.435,0,0,1,0-.871" transform="translate(-67.233 -11.441)" fill="#99762c"/>
        <path id="Path_43" data-name="Path 43" d="M118.313,28.185a.435.435,0,0,1,0,.871.435.435,0,0,1,0-.871" transform="translate(-68.193 -16.5)" fill="#99762c"/>
        <path id="Path_44" data-name="Path 44" d="M94.23,23.62a.435.435,0,0,0,0,.871.435.435,0,0,0,0-.871" transform="translate(-54.262 -13.85)" fill="#99762c"/>
      </g>
    </g>
    <path id="Path_48" data-name="Path 48" d="M-17,0H159" transform="translate(17 10)" fill="none" stroke="#99762c" stroke-width="1"/>
    <line id="Line_5" data-name="Line 5" x2="160" transform="translate(256 10.139)" fill="none" stroke="#99762c" stroke-width="1"/>
  </g>
</svg>
