<svg xmlns="http://www.w3.org/2000/svg" xmlns:xlink="http://www.w3.org/1999/xlink" width="100" height="100" viewBox="0 0 100 100">
  <defs>
    <clipPath id="clip-path">
      <rect id="Rectangle_131" data-name="Rectangle 131" width="100" height="100" transform="translate(575 2436)" fill="#cc9b19"/>
    </clipPath>
  </defs>
  <g id="building-icon" transform="translate(-575 -2436)" clip-path="url(#clip-path)">
    <g id="liner-building" transform="translate(575 2436)">
      <path id="Path_233" data-name="Path 233" d="M98.333,96.667h-10v-55A1.667,1.667,0,0,0,86.667,40H63.333V1.667A1.667,1.667,0,0,0,61.667,0H18.333a1.667,1.667,0,0,0-1.667,1.667v95h-15a1.667,1.667,0,0,0,0,3.333H98.333a1.667,1.667,0,1,0,0-3.333ZM35,96.667H28.333v-15A1.667,1.667,0,0,1,30,80h3.333A1.667,1.667,0,0,1,35,81.667Zm6.667-55v55H38.333v-15a5,5,0,0,0-5-5H30a5,5,0,0,0-5,5v15H20V3.333H60V40H43.333A1.667,1.667,0,0,0,41.667,41.667ZM85,96.667H45V43.333H85Z" fill="#cc9b19"/>
      <path id="Path_234" data-name="Path 234" d="M53.333,23.333h-10A1.667,1.667,0,0,0,41.667,25V35a1.667,1.667,0,0,0,1.667,1.667h10A1.667,1.667,0,0,0,55,35V25A1.667,1.667,0,0,0,53.333,23.333Zm-1.667,10H45V26.667h6.667ZM53.333,6.667h-10a1.667,1.667,0,0,0-1.667,1.667v10A1.667,1.667,0,0,0,43.333,20h10A1.667,1.667,0,0,0,55,18.333v-10A1.667,1.667,0,0,0,53.333,6.667Zm-1.667,10H45V10h6.667Zm-15,6.667h-10A1.667,1.667,0,0,0,25,25V35a1.667,1.667,0,0,0,1.667,1.667h10A1.667,1.667,0,0,0,38.333,35V25A1.667,1.667,0,0,0,36.667,23.333ZM35,33.333H28.333V26.667H35ZM36.667,6.667h-10A1.667,1.667,0,0,0,25,8.333v10A1.667,1.667,0,0,0,26.667,20h10a1.667,1.667,0,0,0,1.667-1.667v-10A1.667,1.667,0,0,0,36.667,6.667ZM35,16.667H28.333V10H35ZM36.667,40h-10A1.667,1.667,0,0,0,25,41.667v10a1.667,1.667,0,0,0,1.667,1.667h10a1.667,1.667,0,0,0,1.667-1.667v-10A1.667,1.667,0,0,0,36.667,40ZM35,50H28.333V43.333H35Zm1.667,6.667h-10A1.667,1.667,0,0,0,25,58.333v10A1.667,1.667,0,0,0,26.667,70h10a1.667,1.667,0,0,0,1.667-1.667v-10A1.667,1.667,0,0,0,36.667,56.667ZM35,66.667H28.333V60H35Zm33.333,10h10A1.667,1.667,0,0,0,80,75V65a1.667,1.667,0,0,0-1.667-1.667h-10A1.667,1.667,0,0,0,66.667,65V75A1.667,1.667,0,0,0,68.333,76.667Zm1.667-10h6.667v6.667H70ZM68.333,60h10A1.667,1.667,0,0,0,80,58.333v-10a1.667,1.667,0,0,0-1.667-1.667h-10a1.667,1.667,0,0,0-1.667,1.667v10A1.667,1.667,0,0,0,68.333,60ZM70,50h6.667v6.667H70ZM68.333,93.333h10A1.667,1.667,0,0,0,80,91.667v-10A1.667,1.667,0,0,0,78.333,80h-10a1.667,1.667,0,0,0-1.667,1.667v10A1.667,1.667,0,0,0,68.333,93.333Zm1.667-10h6.667V90H70ZM51.667,76.667h10A1.667,1.667,0,0,0,63.333,75V65a1.667,1.667,0,0,0-1.667-1.667h-10A1.667,1.667,0,0,0,50,65V75A1.667,1.667,0,0,0,51.667,76.667Zm1.667-10H60v6.667H53.333ZM51.667,60h10a1.667,1.667,0,0,0,1.667-1.667v-10a1.667,1.667,0,0,0-1.667-1.667h-10A1.667,1.667,0,0,0,50,48.333v10A1.667,1.667,0,0,0,51.667,60Zm1.667-10H60v6.667H53.333ZM51.667,93.333h10a1.667,1.667,0,0,0,1.667-1.667v-10A1.667,1.667,0,0,0,61.667,80h-10A1.667,1.667,0,0,0,50,81.667v10A1.667,1.667,0,0,0,51.667,93.333Zm1.667-10H60V90H53.333Z" fill="#cc9b19"/>
    </g>
  </g>
</svg>
