<svg xmlns="http://www.w3.org/2000/svg" xmlns:xlink="http://www.w3.org/1999/xlink" width="120" height="120" viewBox="0 0 120 120">
  <defs>
    <clipPath id="clip-path">
      <circle id="Ellipse_9" data-name="Ellipse 9" cx="60" cy="60" r="60" transform="translate(270 2395)" fill="#fff"/>
    </clipPath>
  </defs>
  <g id="chess-img" transform="translate(-270 -2395)">
    <circle id="Ellipse_8" data-name="Ellipse 8" cx="60" cy="60" r="60" transform="translate(270 2395)" fill="#fff"/>
    <g id="Mask_Group_50" data-name="Mask Group 50" clip-path="url(#clip-path)">
      <g id="fill-chess-carrom" transform="translate(289 2414)">
        <path id="Path_218" data-name="Path 218" d="M100.553,107.373,77.163,99.1,81.6,94.825l18.192,6.431Zm0,0" transform="translate(-23.988 -29.479)" fill="#2a4261"/>
        <path id="Path_219" data-name="Path 219" d="M100.319,92.886l-10.4-3.676a2.756,2.756,0,0,0-3.518,1.68l-.919,2.6L101.08,99,102,96.4A2.757,2.757,0,0,0,100.319,92.886Zm0,0" transform="translate(-26.576 -27.684)" fill="#58708e"/>
        <path id="Path_220" data-name="Path 220" d="M99.276,59.111a12.8,12.8,0,0,1-1.129,9.2L91.925,79.9l10.4,3.676,2.449-12.929a12.8,12.8,0,0,1,4.9-7.862Zm0,0" transform="translate(-28.577 -18.376)" fill="#2a4261"/>
        <path id="Path_221" data-name="Path 221" d="M114.4,54.256a4.135,4.135,0,1,1-4.135-4.135,4.135,4.135,0,0,1,4.135,4.135Zm0,0" transform="translate(-32.995 -15.582)" fill="#2a4261"/>
        <path id="Path_222" data-name="Path 222" d="M8.9,107.373,32.285,99.1l-4.437-4.278L9.657,101.256Zm0,0" transform="translate(-2.765 -29.479)" fill="#38649d"/>
        <path id="Path_223" data-name="Path 223" d="M12.161,92.886l10.4-3.676a2.756,2.756,0,0,1,3.518,1.68l.919,2.6L11.4,99l-.919-2.6a2.756,2.756,0,0,1,1.68-3.518Zm0,0" transform="translate(-3.209 -27.684)" fill="#38649d"/>
        <path id="Path_224" data-name="Path 224" d="M12.719,59.111a12.8,12.8,0,0,0,1.129,9.2L20.07,79.9l-10.4,3.676L7.225,70.649a12.8,12.8,0,0,0-4.9-7.862Zm0,0" transform="translate(-0.722 -18.376)" fill="#38649d"/>
        <path id="Path_225" data-name="Path 225" d="M10.136,54.256A4.135,4.135,0,1,1,6,50.121a4.135,4.135,0,0,1,4.135,4.135Zm0,0" transform="translate(-0.58 -15.582)" fill="#38649d"/>
        <path id="Path_226" data-name="Path 226" d="M0,114H82.695v2.756H0Zm0,0" transform="translate(0 -35.44)" fill="#b73437"/>
        <path id="Path_227" data-name="Path 227" d="M67.565,87.513H40L42.756,82H64.808Zm0,0" transform="translate(-12.435 -25.492)" fill="#2a4261"/>
        <path id="Path_228" data-name="Path 228" d="M62.539,74H48.756A2.756,2.756,0,0,0,46,76.756v2.756H65.3V76.756A2.756,2.756,0,0,0,62.539,74Zm0,0" transform="translate(-14.3 -23.005)" fill="#445c7b"/>
        <path id="Path_229" data-name="Path 229" d="M47.206,59.078v-.146c0-4.477.794-8.936-.36-13.263l-.912-3.419A14.433,14.433,0,0,1,52.719,26l2.756,2.756L62.367,26,59.61,32.891l6.879,8.026a2.307,2.307,0,0,1-2.9,3.5l-8.118-4.639,3.545,6.38c2.195,3.95,4.725,8.4,4.725,12.915Zm0,0" transform="translate(-14.128 -8.083)" fill="#445c7b"/>
        <path id="Path_230" data-name="Path 230" d="M50.943,5.513v5.513a2.756,2.756,0,0,1-5.513,0V8.269L42.674,5.513H34.4v5.513h2.756a2.776,2.776,0,0,1,2.756,2.756v2.756H31.648L27.513,12.4H22V0H45.43Zm0,0" transform="translate(-6.839)" fill="#ffb398"/>
        <path id="Path_231" data-name="Path 231" d="M2,0H15.782V12.4H2ZM2,0" transform="translate(-0.622)" fill="#29485a"/>
        <g id="Group_766" data-name="Group 766" transform="translate(34.638 21.371)">
          <path id="Path_232" data-name="Path 232" d="M51.246,44.046a12.053,12.053,0,0,1,2.316-13.035l1.976,1.921a9.361,9.361,0,0,0-1.774,9.99Zm0,0" transform="translate(-50.264 -31.012)" fill="#fff"/>
          <path id="Path_233" data-name="Path 233" d="M53.33,53.663l2.576-.982.928,2.437-2.576.982Zm0,0" transform="translate(-51.217 -37.748)" fill="#fff"/>
        </g>
      </g>
    </g>
  </g>
</svg>
