<svg xmlns="http://www.w3.org/2000/svg" xmlns:xlink="http://www.w3.org/1999/xlink" width="100" height="100" viewBox="0 0 100 100">
  <defs>
    <clipPath id="clip-path">
      <rect id="Rectangle_134" data-name="Rectangle 134" width="100" height="100" transform="translate(1478 2286)" fill="#cc9b19"/>
    </clipPath>
  </defs>
  <g id="mall-icon" transform="translate(-1478 -2286)" clip-path="url(#clip-path)">
    <g id="liner-mall" transform="translate(1476.383 2284.376)">
      <path id="Path_236" data-name="Path 236" d="M50,53.23V44.668l1.728,4.321a1.613,1.613,0,0,0,3,0l1.728-4.321V53.23h3.226v-12.9a1.613,1.613,0,0,0-1.613-1.613H56.456a1.613,1.613,0,0,0-1.5,1.015L53.23,44.048,51.5,39.727A1.613,1.613,0,0,0,50,38.712H48.391a1.613,1.613,0,0,0-1.613,1.613v12.9Zm15.777-4.839h3.933l1.308,5.229,3.129-.781-3.226-12.9a1.613,1.613,0,0,0-1.565-1.223H66.134a1.613,1.613,0,0,0-1.565,1.223l-3.226,12.9,3.129.781Zm2.32-6.452.807,3.226h-2.32l.807-3.226ZM77.425,53.23h6.452V50H79.038V38.712H75.812v12.9A1.613,1.613,0,0,0,77.425,53.23Zm9.678,0h6.452V50H88.716V38.712H85.49v12.9A1.613,1.613,0,0,0,87.1,53.23Z" fill="#cc9b19"/>
      <path id="Path_237" data-name="Path 237" d="M98.394,93.637V38.261a4.81,4.81,0,0,0-4.113-4.784L45.1,26.026a8.028,8.028,0,0,0-3.166-5.617V8.776A4.839,4.839,0,0,0,38.63,4.194l-2.118-.708a36.585,36.585,0,0,0-23.023,0l-2.116.708A4.839,4.839,0,0,0,8.065,8.776V20.41a8.038,8.038,0,0,0-3.226,6.428v66.8a4.033,4.033,0,0,0,.807,7.983H97.588a4.033,4.033,0,0,0,.807-7.983ZM95.168,38.261V93.555h-12.9V70.973h.807a4.033,4.033,0,0,0,0-8.065H55.649a4.033,4.033,0,1,0,0,8.065h.807V93.555H45.165V29.3L93.8,36.664A1.613,1.613,0,0,1,95.168,38.261ZM55.649,67.747a.807.807,0,0,1,0-1.613H83.071a.807.807,0,0,1,0,1.613Zm12.1,3.226V93.555H59.682V70.973Zm3.226,0h8.065V93.555H70.973ZM30.647,19.879V32.794a31.435,31.435,0,0,0-11.291.032V19.879a34.012,34.012,0,0,1,11.291,0Zm8.359,2.51a4.839,4.839,0,0,1,2.932,4.449v10.4a31.1,31.1,0,0,0-8.065-3.663V20.589a33.486,33.486,0,0,1,4.423,1.5Zm2.932,30.975A31.1,31.1,0,0,0,33.873,49.7V36.928a27.828,27.828,0,0,1,7.809,4.033l.256.189Zm-.256,3.72.256.189V69.494a31.1,31.1,0,0,0-8.065-3.663V53.059a27.828,27.828,0,0,1,7.809,4.033ZM30.647,65.055a31.472,31.472,0,0,0-11.291.032V52.226a28.194,28.194,0,0,1,11.291-.008Zm-14.517.8a31.093,31.093,0,0,0-8.065,3.729V57.32l1.331-.9a27.842,27.842,0,0,1,6.734-3.308ZM9.4,72.547a27.842,27.842,0,0,1,6.734-3.3V83.6a31.093,31.093,0,0,0-8.065,3.729V73.459Zm9.96-4.191a28.194,28.194,0,0,1,11.291-.008V82.8a31.472,31.472,0,0,0-11.291.032Zm14.517.832a27.828,27.828,0,0,1,7.809,4.033l.256.189V87.245a31.1,31.1,0,0,0-8.065-3.663Zm-3.226-33.1V48.924a31.472,31.472,0,0,0-11.291.032V36.095a28.194,28.194,0,0,1,11.291-.006ZM16.13,49.72a31.093,31.093,0,0,0-8.065,3.729V41.19l1.331-.9a27.843,27.843,0,0,1,6.734-3.308ZM8.065,91.187l1.331-.9a27.842,27.842,0,0,1,6.734-3.3v6.567H8.065ZM19.356,86.1a28.194,28.194,0,0,1,11.291-.008v7.463H19.356Zm14.517.832a27.828,27.828,0,0,1,7.809,4.033l.256.189v2.4H33.873ZM12.394,7.246l2.123-.7a33.34,33.34,0,0,1,20.969,0l2.116.7a1.613,1.613,0,0,1,1.11,1.529v10a37.124,37.124,0,0,0-27.421,0v-10a1.613,1.613,0,0,1,1.1-1.531ZM11,22.389l.708-.3a33.428,33.428,0,0,1,4.425-1.5v13a31.092,31.092,0,0,0-8.065,3.729V26.834A4.839,4.839,0,0,1,11,22.389Zm86.59,76.005H5.646a.807.807,0,0,1,0-1.613H97.588a.807.807,0,0,1,0,1.613Z" fill="#cc9b19"/>
    </g>
  </g>
</svg>
