<svg xmlns="http://www.w3.org/2000/svg" xmlns:xlink="http://www.w3.org/1999/xlink" width="120" height="120" viewBox="0 0 120 120">
  <defs>
    <clipPath id="clip-path">
      <circle id="Ellipse_9" data-name="Ellipse 9" cx="60" cy="60" r="60" transform="translate(270 2395)" fill="#fff"/>
    </clipPath>
  </defs>
  <g id="massage-img" transform="translate(-270 -2395)">
    <circle id="Ellipse_8" data-name="Ellipse 8" cx="60" cy="60" r="60" transform="translate(270 2395)" fill="#fff"/>
    <g id="Mask_Group_44" data-name="Mask Group 44" clip-path="url(#clip-path)">
      <g id="fill-massage" transform="translate(286 2417)">
        <g id="Layer_24" data-name="Layer 24" transform="translate(0 0)">
          <path id="Path_218" data-name="Path 218" d="M13.361,52.059a6.5,6.5,0,0,0-1.391.915A4.693,4.693,0,0,0,10.121,56.9a3.331,3.331,0,0,0,.1.6,3.012,3.012,0,0,1-2.012-.446,33.161,33.161,0,0,0-1.668-6.535,3.821,3.821,0,0,0-1.309-1.939c-.88-.61-2-.733-2.877-1.364C.478,45.858.9,43.192,1.9,41.442c1.062-1.863,2.722-3.272,3.964-5,.1-.087.194-.172.294-.254a2.768,2.768,0,0,0-.21,1.525A3.918,3.918,0,0,0,7.29,39.943a3.46,3.46,0,0,0,.931.572c.438.177.95.172,1.366.392.923.485.784,1.857.7,2.731-.032.316.458.528.683.326a1.228,1.228,0,0,1,1.911.449c.413,1.057-.817,1.957-1.759,1.863-.247-.025-.523.213-.409.48.781,1.823,1.806,3.514,2.654,5.3Z" transform="translate(-0.28 -9.652)" fill="#fecaa5"/>
          <path id="Path_219" data-name="Path 219" d="M20.175,44.4c-1.165,1.966-3.216,3.2-5.184,4.279-.4-.762-.811-1.525-1.189-2.3a2.172,2.172,0,0,0,1.829-2.862,2.2,2.2,0,0,0-2.481-1.2c.017-1.132-.236-2.349-1.392-2.8-.4-.155-.83-.169-1.228-.315a2.954,2.954,0,0,1-1.283-4.415.133.133,0,0,0,.009-.022,7.783,7.783,0,0,1,10.294,1.908,7.312,7.312,0,0,1,.626,7.731Z" transform="translate(-2.314 -8.967)" fill="#333332"/>
          <path id="Path_220" data-name="Path 220" d="M35.883,45.947a4.988,4.988,0,0,1-7.558.735c-2.352-2.4-1.3-5.558-2.282-7.018A7.343,7.343,0,0,0,24.517,38a8,8,0,0,0-1.122-1.86A5.327,5.327,0,0,1,26,35.084a4.03,4.03,0,0,1,3.038,1.054c1.735,1.593,1.283,3.913,1.538,6.014a4.1,4.1,0,0,0,5.309,3.795Z" transform="translate(-6.239 -9.353)" fill="#333332"/>
          <path id="Path_221" data-name="Path 221" d="M58.5,57.235a6.223,6.223,0,0,1-1.995,3.793c-2.1,2.012-4.889,2.69-7.694,2.88-2.695.18-5.4.205-8.1.259-1.448.027-2.9.036-4.345.115a15.467,15.467,0,0,0-1.955.145c-.041-1.335-.063-2.673-.093-4.008-.017-.8-.036-1.609-.065-2.412-.008-.2,0-.4-.014-.575a19.924,19.924,0,0,0,3.054.112c1.5.017,3,.035,4.5.02-.041.18-.079.361-.117.541A7.28,7.28,0,0,0,41.318,60c.066.651.854,1.26,1.364,1.555a4.756,4.756,0,0,0,4.369-.089c1.459-.665,1.6-2.151,2.418-3.33a1.851,1.851,0,0,1,2.071-.933,3.416,3.416,0,0,0,.558-.591,3.537,3.537,0,0,0,.378-.653,11.776,11.776,0,0,0,.4-1.241,1.482,1.482,0,0,1,1.509-.918c1.8-.087,3.836.514,4.1,2.532.008.057.014.114.019.169a3.935,3.935,0,0,1,0,.735Z" transform="translate(-9.132 -14.345)" fill="#fecaa5"/>
          <path id="Path_222" data-name="Path 222" d="M28.4,66.623q-.593.1-1.189.179c-.168.02-.243.1-.258.2a23.741,23.741,0,0,1-9.28-1.073c-1.3-.458-2.665-1.244-2.927-2.715a4.133,4.133,0,0,1,1.739-3.836,3.642,3.642,0,0,1,1.762-.884c.542-.063,1.087-.1,1.634-.125,1.121-.052,2.244-.052,3.365-.022,1.658.043,3.3.223,4.947.333a.084.084,0,0,0-.008.017c-.068.141.017.47.024.64.027.809.044,1.62.062,2.429.034,1.62.063,3.24.128,4.859Z" transform="translate(-3.92 -15.554)" fill="#f7f6f5"/>
          <path id="Path_223" data-name="Path 223" d="M27.394,78.582a29.905,29.905,0,0,0-.471,5c-.017.433-.036.866-.065,1.3a4.057,4.057,0,0,1-.109,1.291c-.275.509-1.754.122-2.252.046a25.052,25.052,0,0,1-9.169-3.458c-2.606-1.581-5.56-3.578-7.048-6.325-2.044-3.773.582-7.413,1.709-11.012a2.686,2.686,0,0,0,2.086.254,4.454,4.454,0,0,0,1.992,2.161,14.359,14.359,0,0,0,5.146,1.47,22.32,22.32,0,0,0,2.964.2.47.47,0,0,0,.133.479L26.2,74l.974,1a2.67,2.67,0,0,1,.781.99c.2.74-.4,1.857-.56,2.586Z" transform="translate(-2.006 -17.446)" fill="#efeeed"/>
          <path id="Path_224" data-name="Path 224" d="M105.484,91.545a7.468,7.468,0,0,1-2.2.409,40.227,40.227,0,0,1-4.576.316,87.638,87.638,0,0,1-9.618-.409c-1.255-.114-2.508-.245-3.757-.406-.378-.049-.76-.126-1.14-.153-.074-.006-4.485-.542-4.555-.54.305-1.562.811-3.632,1.029-5.208,2.213.473,8.488,2.118,10.678,2.675,1.69.43,3.284.871,4.98.247.882-.326,1.7-.8,2.589-1.11a2.814,2.814,0,0,1,3.213.855,5.993,5.993,0,0,0,1.334,1.155c.585.332,1.225.563,1.8.911C105.761,90.582,106.257,91.145,105.484,91.545Z" transform="translate(-21.24 -22.816)" fill="#fecaa5"/>
          <path id="Path_225" data-name="Path 225" d="M68.3,83.358c-.226,1.666-.46,3.332-.732,4.991-.066.4-.205,1.925-.19,2.154-1.976.136-3.763-.156-5.512-.194-6.5-.141-13-.321-19.507-.5l-7.046-.194c.22-1.943.123-3.909.351-5.851.138-1.171.569-2.238.773-3.386a2.193,2.193,0,0,0-.207-1.459,41.072,41.072,0,0,1,7.47.286c2.9.465,5.409,1.939,8.217,2.684,5.356,1.421,10.976.436,16.384,1.467Z" transform="translate(-9.416 -21.037)" fill="#2a4261"/>
          <path id="Path_226" data-name="Path 226" d="M91.593,86.028a4.119,4.119,0,0,1-2.828.994,26.267,26.267,0,0,1-5.479-.789c-2.589-.561-5.566-1.412-8.174-1.884.06-.438.091-.261.151-.7a.532.532,0,0,0-.37-.607c-5.687-1.217-11.646-.013-17.272-1.552l-.1-.03q.341.047.678.085a51.279,51.279,0,0,0,6.593.224c2.685-.038,5.369-.161,8.051-.273a33.768,33.768,0,0,0,7.729-.73,8.988,8.988,0,0,1,3.8.386c1.271.457,2.4,1.215,3.689,1.655C89.644,83.348,92.344,83.879,91.593,86.028Z" transform="translate(-15.339 -21.528)" fill="#fcb683"/>
          <path id="Path_227" data-name="Path 227" d="M80.189,75.279c-2.278,1.094-4.873,1.1-7.343,1.2-2.431.093-4.862.2-7.293.27-3.678.1-7.655.354-11.252-.591-.934-.245-2.15-.64-2.572-1.609-.808-1.846.98-4.1,2.311-5.172,2.08-1.675,4.923-2.363,7.5-2.806a62.9,62.9,0,0,1,7.938-.6.727.727,0,0,0,.354.149q4.106.239,8.222.128,2.018-.059,4.03-.2c1.185-.085,2.417-.125,3.593-.324a10.21,10.21,0,0,1-5.489,9.561Z" transform="translate(-13.742 -17.526)" fill="#260000"/>
          <path id="Path_228" data-name="Path 228" d="M81.889,43.789a69.494,69.494,0,0,1-7.342,4.906,37.408,37.408,0,0,1-3.441,1.947,7.63,7.63,0,0,1-1.9.517c-2.355.444-4.74.8-7.13,1.046l0-.055a3.373,3.373,0,0,0-2.956-3.106c-1.3-.27-3.466-.6-4.119.955a15.876,15.876,0,0,1-.533,1.5,2.577,2.577,0,0,1-.746.858,2.378,2.378,0,0,0-2,1.124c-.4.639-.631,1.374-1.008,2.026a3.355,3.355,0,0,1-2.4,1.582c-1.124.256-2.692.079-3.33-1.043-.109-.19-.077-.139-.082-.288a8.83,8.83,0,0,1,.382-1.928c.046-.21.092-.42.141-.632a.256.256,0,0,0,.027-.119,12.232,12.232,0,0,1,.871-2.617,3.779,3.779,0,0,1,2.719-2.3c4.9-.883,9.915-1.271,14.861-1.769a6.977,6.977,0,0,0,2.067-.428,21.092,21.092,0,0,0,3.393-1.919,73.523,73.523,0,0,0,7.217-5.366q.427-.36.849-.724c1.483,1.946,2.964,3.895,4.464,5.828Z" transform="translate(-11.974 -10.124)" fill="#fcb683"/>
          <path id="Path_229" data-name="Path 229" d="M97.993,38.977c-1.16,5.219-2.448,10.411-3.921,15.549-.226.789-.447,1.581-.692,2.363-.145.469-.223.947-.756,1.111a6.792,6.792,0,0,1-1.291.15q-2.321.223-4.653.329a94.289,94.289,0,0,1-9.5-.057,16.759,16.759,0,0,0,1.9-6.452.212.212,0,0,0,0-.044c.058-.014.115-.025.174-.04a8.853,8.853,0,0,0,2.194-1.013,93.593,93.593,0,0,0,8.222-5.247c.443-.316.88-.64,1.306-.977a.592.592,0,0,0,.833.082,19.643,19.643,0,0,0,2.823-2.5.3.3,0,0,0,.332-.019,14.717,14.717,0,0,0,3.027-3.24Z" transform="translate(-20.582 -10.394)" fill="#2a4261"/>
          <path id="Path_230" data-name="Path 230" d="M101.811,33.351c-.571,2.357-1.723,3.74-3.753,5.835-.157.162-2.892,2.139-3.1,2.2-.093.141-.191.133-.294-.021-.784-.651-3.621-4.743-4.8-6.314,1.712-1.489,3.552-2.913,5.119-4.549,1.117-1.165,2.64-2.518,4.372-2.38C102.059,28.338,102.31,31.282,101.811,33.351Z" transform="translate(-23.965 -7.497)" fill="#2a4261"/>
          <path id="Path_231" data-name="Path 231" d="M99.339,23.943a4.853,4.853,0,0,0-4.361,1.3c-.155-.409-.318-.816-.471-1.227-.185-.493-.172-.974-.756-.9-1.2.153-2.206.639-3.213-.367a6.543,6.543,0,0,1-1.276-2.064,16.875,16.875,0,0,1-1.818-6.45,6.123,6.123,0,0,0,1.661.661c.838.183,1.712-.009,2.535.175,1.451.326,1.163,2.565,2.542,2.85a1.225,1.225,0,0,0,1.165-.511c.545-.618.948-1.3,1.772-1.585a1.562,1.562,0,1,1,.962,2.924.255.255,0,0,0-.209.333c.19.839.422,1.679.678,2.51C98.53,21.667,99.14,23.388,99.339,23.943Z" transform="translate(-23.321 -3.798)" fill="#fecaa5"/>
          <path id="Path_232" data-name="Path 232" d="M101.665,11.94a8.946,8.946,0,0,1-.765,3.5c-.488,1.064-1.346,2.59-1.918,3.606-.126-.514-.323-1.713-.429-2.226a2.211,2.211,0,0,0,1.424-2.943c-.552-1.426-2.507-1.664-3.729-1.012a3.888,3.888,0,0,0-1.016.812c-.236.256-.537.884-.9.86-.438-.03-.926-1.525-1.245-1.9a2.647,2.647,0,0,0-2.192-.85,5.929,5.929,0,0,1-3.243-.713.485.485,0,0,0-.152-.057,5.683,5.683,0,0,1,1.7-3.539C91.644,5.036,95.951,4.132,99,6.07a6.594,6.594,0,0,1,2.668,5.87Z" transform="translate(-23.334 -1.339)" fill="#260000"/>
          <path id="Path_233" data-name="Path 233" d="M99.706,24.075c-.5-1.757-1.019-3.556-1.368-5.35l-.209.334a2.2,2.2,0,0,0,1.69-3c-.551-1.426-2.507-1.664-3.728-1.012a3.871,3.871,0,0,0-1.016.813c-.236.257-.537.884-.9.859-.439-.03-.927-1.525-1.246-1.9a2.646,2.646,0,0,0-2.192-.851,5.916,5.916,0,0,1-3.243-.713c-.46-.261-.838.33-.374.6a6.421,6.421,0,0,0,1.846.766c.838.183,1.713-.01,2.535.174,1.452.326,1.163,2.565,2.543,2.851a1.227,1.227,0,0,0,1.164-.512c.546-.618.948-1.3,1.773-1.585a1.636,1.636,0,0,1,2.254,1.031,1.64,1.64,0,0,1-1.292,1.892.256.256,0,0,0-.209.334,43.175,43.175,0,0,0,1.632,5.313c.069.188.411.186.345-.047Z" transform="translate(-23.176 -3.518)"/>
          <path id="Path_234" data-name="Path 234" d="M94.9,23.051c-.208-.6-.449-1.182-.672-1.776-.185-.493-.173-.973-.755-.9-1.2.155-2.206.639-3.214-.366a6.555,6.555,0,0,1-1.275-2.064c-1.512-3.4-3.159-7.688-.086-10.751,2.454-2.446,6.761-3.351,9.806-1.413a6.6,6.6,0,0,1,2.668,5.871,8.946,8.946,0,0,1-.766,3.5c-.636,1.386-1.724,2.385-2.079,3.894-.1.438.362.754.476.281.358-1.486,1.821-2.523,2.433-3.924a9.779,9.779,0,0,0,.77-3.338,7.688,7.688,0,0,0-2.637-6.619c-2.72-2.109-6.957-1.875-9.741-.062a7.007,7.007,0,0,0-3.4,5.252,12.449,12.449,0,0,0,1.182,5.521c.644,1.62,1.382,3.912,3.056,4.766a2.674,2.674,0,0,0,1.554.215,5.933,5.933,0,0,0,.813-.164c.147-.038.454-.2.6-.17.162.033-.04-.062.035.153.043.124.1.246.149.368.066.157.135.312.2.468.191.429.369.86.54,1.3.073.186.424.181.345-.047Z" transform="translate(-23.043 -1.053)"/>
          <path id="Path_235" data-name="Path 235" d="M105.316,5.4a3.048,3.048,0,0,0,2.329,1.3,2.985,2.985,0,0,0,2.8-1.875c1-2.552-1.685-3.785-2.232-3.941a2.61,2.61,0,0,0-1.754.059,2.443,2.443,0,0,0-.647.431,3.18,3.18,0,0,0-.873,3.291A2.875,2.875,0,0,0,105.316,5.4Z" transform="translate(-27.946 -0.202)" fill="#260000"/>
          <path id="Path_236" data-name="Path 236" d="M110.133,1.665A4.33,4.33,0,0,0,106.292.047c-2.513.446-3.071,3.472-1.888,5.368a6.99,6.99,0,0,0,2.354,1.363,3.281,3.281,0,0,0,2.873-.561,3.132,3.132,0,0,0,.5-4.552Zm-.859,3.442a2.6,2.6,0,0,1-2.007.977,2.692,2.692,0,0,1-2.132-1.012c-.82-1.252.3-3.516,1.866-3.908a2.46,2.46,0,0,1,2.253.788A2.351,2.351,0,0,1,109.274,5.106Z" transform="translate(-27.685 0)"/>
          <path id="Path_237" data-name="Path 237" d="M100.206,27.595c-1.881-.849-3.776.158-5.179,1.426-.858.775-1.653,1.609-2.519,2.379l-3.517,3.127a.241.241,0,0,0-.026.321c1.582,2.077,3.161,4.157,4.762,6.219.351.452.648.914,1.216.545A21.8,21.8,0,0,0,98.1,39.1c2.023-1.691,3.744-3.558,4.229-6.243C102.7,30.763,102.325,28.552,100.206,27.595Zm1.352,5.535c-.555,2.292-1.965,3.908-3.791,5.647a37.052,37.052,0,0,1-3.06,2.388.215.215,0,0,1-.293-.021c-.285-.282-.959-1.19-1.26-1.6-1.17-1.581-2.361-3.147-3.544-4.718,1.713-1.488,3.553-2.914,5.12-4.548,1.117-1.165,2.64-2.518,4.372-2.38,2.706.215,2.958,3.16,2.457,5.229Z" transform="translate(-23.713 -7.275)"/>
          <path id="Path_238" data-name="Path 238" d="M77.326,37.676c-.34.291-.68.582-1.021.869a73.694,73.694,0,0,1-7.215,5.366,21.118,21.118,0,0,1-3.4,1.919,6.967,6.967,0,0,1-2.067.428c-4.946.5-9.964.885-14.859,1.769a3.778,3.778,0,0,0-2.72,2.3,14.616,14.616,0,0,0-1.038,3.368,8.924,8.924,0,0,0-.382,1.928c0,.149-.025.1.082.288.64,1.122,2.206,1.3,3.332,1.043a3.358,3.358,0,0,0,2.4-1.582c.376-.653.61-1.388,1.007-2.026a2.381,2.381,0,0,1,2-1.124,7.652,7.652,0,0,1,1.215.028,3.5,3.5,0,0,1-.56.593,2.129,2.129,0,0,0-1.9.7c-.058.074-.115.15-.168.226-.814,1.179-.959,2.665-2.418,3.33a4.759,4.759,0,0,1-4.37.089c-.509-.294-1.3-.9-1.364-1.555a7.344,7.344,0,0,1,.356-1.892c.136-.653.286-1.3.468-1.943a8.847,8.847,0,0,1,1.23-2.78A3.813,3.813,0,0,1,48.458,47.4c2.551-.473,5.156-.718,7.731-1.01q3.772-.427,7.547-.806c2.414-.24,4.587-1.892,6.544-3.212,2.322-1.566,4.566-3.254,6.826-4.909C77.231,37.369,77.458,37.56,77.326,37.676Z" transform="translate(-11.702 -9.984)"/>
          <path id="Path_239" data-name="Path 239" d="M88.512,46.324c-.493.362-.969.746-1.467,1.1a93.658,93.658,0,0,1-8.224,5.247,8.8,8.8,0,0,1-2.194,1.013c-1.04.253-2.1.425-3.158.6-1.784.292-3.588.553-5.4.73-.25.025-.5.047-.749.068a3.934,3.934,0,0,0,0-.735c.245-.024.492-.047.737-.073,2.39-.247,4.773-.6,7.128-1.046a7.593,7.593,0,0,0,1.9-.517,37.418,37.418,0,0,0,3.442-1.946,69.112,69.112,0,0,0,7.435-4.98c.308-.248.814.343.548.537Z" transform="translate(-17.954 -12.195)"/>
          <path id="Path_240" data-name="Path 240" d="M98.338,34.526c-1.338,6.313-2.851,12.6-4.629,18.8-.226.788-.447,1.581-.692,2.363-.147.47-.224.947-.757,1.111a6.7,6.7,0,0,1-1.29.15q-2.322.222-4.654.328a93.864,93.864,0,0,1-10.173-.094l.363.5c1.446-2,1.854-4.534,2.213-6.914.054-.356-.674-.681-.734-.281-.353,2.34-.715,4.821-2.124,6.793-.186.26.254.494.45.506q4.107.239,8.223.128,2.017-.058,4.03-.2a33.994,33.994,0,0,0,3.806-.36c1-.188,1.121-1.016,1.371-1.876q.579-2,1.119-4Q95.9,47.6,96.781,43.7c.681-3.012,1.267-6.038,1.781-9.083.018-.107-.2-.209-.224-.086Z" transform="translate(-20.219 -9.193)"/>
          <path id="Path_241" data-name="Path 241" d="M5.505,35.907a32.592,32.592,0,0,0-2.48,2.6,17.162,17.162,0,0,0-2,2.484A5.449,5.449,0,0,0,.4,46.13a4.317,4.317,0,0,0,1.695,1.8c1.019.62,2.448.73,3.02,1.874a27.787,27.787,0,0,1,2.269,7.64c.062.418.666.341.586-.208a33.3,33.3,0,0,0-1.709-6.8,3.824,3.824,0,0,0-1.309-1.94c-.88-.609-2-.734-2.877-1.364C.2,45.777.621,43.111,1.62,41.36c1.115-1.956,2.89-3.409,4.148-5.254.078-.115-.168-.28-.262-.2Z" transform="translate(0 -9.57)"/>
          <path id="Path_242" data-name="Path 242" d="M8.491,34.754a3.6,3.6,0,0,0-.773,2.552A3.914,3.914,0,0,0,9.06,39.531a3.436,3.436,0,0,0,.93.572c.438.178.951.173,1.367.392.922.486.783,1.857.7,2.732-.032.316.457.528.682.326A1.228,1.228,0,0,1,14.646,44c.413,1.057-.818,1.956-1.759,1.863-.248-.025-.524.214-.41.48.838,1.956,1.962,3.762,2.84,5.7.191.42,1.027.249.816-.238-.844-1.953-1.968-3.76-2.853-5.693l-.364.582c1.494.111,3.143-1.328,2.45-2.9a2.114,2.114,0,0,0-3.2-.817l.682.326c.124-1.283.052-2.957-1.352-3.509-.4-.156-.83-.169-1.229-.316a2.955,2.955,0,0,1-1.283-4.414c.166-.282-.309-.58-.49-.306Z" transform="translate(-2.049 -9.239)"/>
          <path id="Path_243" data-name="Path 243" d="M6.922,35.938c3.291-3.441,9.2-3.488,12.063.514a7.312,7.312,0,0,1,.626,7.729c-1.258,2.124-3.55,3.4-5.655,4.536-.34.184.353.764.668.589a16.278,16.278,0,0,0,5.219-3.945,7.178,7.178,0,0,0,.945-6.639,8.481,8.481,0,0,0-9.617-5.76,8.139,8.139,0,0,0-4.589,2.764c-.1.126.227.329.339.212Z" transform="translate(-1.75 -8.745)"/>
          <path id="Path_244" data-name="Path 244" d="M22.933,36.12a5.8,5.8,0,0,1,2.883-1.246,4.025,4.025,0,0,1,3.037,1.053c1.737,1.594,1.284,3.914,1.539,6.015a4.21,4.21,0,0,0,2.432,3.626,4.07,4.07,0,0,0,4.122-.486l-.572-.462c-1.433,3.162-5.618,4.516-8.23,1.851-2.353-2.4-.5-6.737-3.759-8.856-.343-.223-.25.406.077.68,1.629,1.368,1.318,3.731,1.611,5.625a5.425,5.425,0,0,0,2.687,4.037c3.081,1.715,6.745.076,8.243-2.943a.38.38,0,0,0-.572-.462,3.332,3.332,0,0,1-4.785-.877c-1.063-1.842-.349-4.16-1.016-6.126A4.871,4.871,0,0,0,27.2,34.4a4.244,4.244,0,0,0-4.473,1.553c-.077.126.1.238.205.166Z" transform="translate(-6.056 -9.143)"/>
          <path id="Path_245" data-name="Path 245" d="M28.763,61.361c-.018-.8-.037-1.609-.066-2.412-.017-.478.08-.953-.417-1.17a6.046,6.046,0,0,0-1.777-.22q-1.792-.149-3.59-.2c-1.361-.043-2.726-.055-4.086.021a9.313,9.313,0,0,0-1.756.166,5.246,5.246,0,0,0-1.807,1.066,4.692,4.692,0,0,0-1.849,3.923,4.084,4.084,0,0,0,2.219,3.141,14.366,14.366,0,0,0,5.147,1.47,21.389,21.389,0,0,0,6.28.205c.586,0,1.852-.422,1.845-.6-.076-1.794-.1-3.589-.142-5.385ZM26.61,66.732h0a23.761,23.761,0,0,1-9.278-1.073c-1.295-.458-2.665-1.244-2.927-2.716a4.136,4.136,0,0,1,1.739-3.837,3.647,3.647,0,0,1,1.762-.884c.543-.062,1.089-.1,1.634-.125,1.121-.052,2.244-.051,3.366-.021,1.658.043,3.3.223,4.947.334,0,.005.061,2.276.078,3.086.035,1.625.063,3.37.128,4.995a13.407,13.407,0,0,1-1.446.241Z" transform="translate(-3.574 -15.287)"/>
          <path id="Path_246" data-name="Path 246" d="M33.884,58.793c.645.073,2.246-.105,3.315-.092,1.681.021,3.366.042,5.046.016a.27.27,0,1,0-.007-.539c-1.674-.1-3.371-.029-5.046.026a15.619,15.619,0,0,0-3.262.229.062.062,0,0,0,0,.12Z" transform="translate(-9.036 -15.502)"/>
          <path id="Path_247" data-name="Path 247" d="M59.058,56.892a6.57,6.57,0,0,1-1.626,3.752,11.421,11.421,0,0,1-7.966,3.646c-2.911.215-5.848.158-8.766.16-2.346,0-4.753.187-7.089.044-.081,0-.128-.133-.04-.166a8.84,8.84,0,0,1,2.606-.321c1.446-.079,2.9-.089,4.345-.115,2.7-.052,5.4-.077,8.1-.259,2.807-.19,5.6-.868,7.694-2.88a6.225,6.225,0,0,0,2-3.793,3.935,3.935,0,0,0,0-.735c0-.055-.011-.111-.019-.168-.269-2.02-2.3-2.621-4.1-2.534a1.483,1.483,0,0,0-1.509.918,12.169,12.169,0,0,1-.4,1.241,3.549,3.549,0,0,1-.379.653,3.5,3.5,0,0,1-.56.593,2.129,2.129,0,0,0-1.9.7c-.058.074-.115.15-.168.226a.461.461,0,0,1-.041-.9,4.078,4.078,0,0,0,1.453-.656,2.593,2.593,0,0,0,.746-.858c.256-.476.326-1.01.533-1.5.651-1.555,2.817-1.225,4.119-.955A3.375,3.375,0,0,1,59.043,56.1l0,.055a5.03,5.03,0,0,1,.011.74Z" transform="translate(-8.94 -14.071)"/>
          <path id="Path_248" data-name="Path 248" d="M13.245,64.862a2.745,2.745,0,0,1-2.666-.295c-.16-.081-.468.026-.295.239a2.614,2.614,0,0,0,3.17.374c.205-.115-.027-.4-.209-.318Z" transform="translate(-2.728 -17.212)"/>
          <path id="Path_249" data-name="Path 249" d="M9.277,64.726a29.564,29.564,0,0,0-2.461,5.522,8.164,8.164,0,0,0-.174,5.272c1.138,3.277,4.341,5.629,7.128,7.458a26.037,26.037,0,0,0,10.111,4.109c1.337.211,3.434.769,3.665-1.088.25-2,.136-4.034.371-6.039.137-1.172.569-2.238.773-3.387a2.353,2.353,0,0,0-.728-2.169c-1.7-1.808-3.465-3.566-5.2-5.348-.483-.5-1.328-.2-1,.13,1.318,1.318,2.805,3.262,4.1,4.6l.973,1a2.685,2.685,0,0,1,.782.988c.2.741-.4,1.858-.56,2.587a29.831,29.831,0,0,0-.471,5c-.018.433-.038.866-.065,1.3a4.035,4.035,0,0,1-.111,1.291c-.275.51-1.754.122-2.253.046A25.026,25.026,0,0,1,15,82.54c-2.605-1.581-5.561-3.579-7.048-6.324-2.094-3.866.715-7.594,1.79-11.28a.258.258,0,0,0-.461-.21Z" transform="translate(-1.674 -17.231)"/>
          <path id="Path_250" data-name="Path 250" d="M68.719,82.334c-5.687-1.217-11.646-.012-17.273-1.551-2.725-.745-5.193-2.071-8.021-2.476a36.782,36.782,0,0,0-8.552.035c-.238.021-.153.389.061.385a47.513,47.513,0,0,1,8.508.263c2.9.465,5.409,1.939,8.217,2.684,5.357,1.421,10.978.436,16.385,1.467-.226,1.666-.461,3.332-.733,4.991-.066.4-.194,1.616-.273,2.015-.044.225-3.679-.017-5.429-.055-6.5-.142-13.005-.321-19.507-.5l-7.311-.2c-.618-.016-.546.861.021.876q8.332.225,16.665.44,4.941.125,9.883.235c1.878.04,3.766.139,5.645.1.921-.017.939-.922,1.091-1.693.418-2.122.7-4.272.992-6.413A.533.533,0,0,0,68.719,82.334Z" transform="translate(-9.162 -20.82)"/>
          <path id="Path_251" data-name="Path 251" d="M69.643,65.367a38.306,38.306,0,0,0-8.327.306,19.324,19.324,0,0,0-7.374,2.314c-2.534,1.57-5.569,6.046-2,8.17a10.86,10.86,0,0,0,4.333,1.2,51.475,51.475,0,0,0,6.592.224c2.685-.038,5.369-.16,8.052-.272s5.474-.023,8.058-.825a10.722,10.722,0,0,0,7.236-11.045c-.034-.5-.891-.621-.864-.066a10.221,10.221,0,0,1-5.485,9.719c-2.277,1.095-4.872,1.1-7.343,1.2-2.43.093-4.86.2-7.292.271-3.678.1-7.655.353-11.252-.592-.934-.245-2.15-.64-2.573-1.609-.806-1.847.98-4.1,2.311-5.172,2.08-1.675,4.923-2.363,7.5-2.806a70.028,70.028,0,0,1,8.485-.626c.246-.012.147-.372-.06-.387Z" transform="translate(-13.417 -17.335)"/>
          <path id="Path_252" data-name="Path 252" d="M87.885,80.577a10.172,10.172,0,0,1,4.54.328c1.27.457,2.4,1.214,3.689,1.654,1.668.569,3.863,1.063,3.53,3.221-.158,1.019.841-.2.841-.2a3.321,3.321,0,0,0-1.308-2.743,7.936,7.936,0,0,0-2.359-.914c-1.533-.486-2.886-1.426-4.437-1.843a6.8,6.8,0,0,0-4.6.24C87.623,80.4,87.742,80.59,87.885,80.577Z" transform="translate(-23.39 -21.28)"/>
          <path id="Path_253" data-name="Path 253" d="M7.976,99.722c12.385.027,66.089.155,78.778.4a2.452,2.452,0,0,0,2.5-2.347v0a2.452,2.452,0,0,0-2.4-2.559c-12.971-.249-66.908-.377-78.863-.4a2.453,2.453,0,1,0-.01,4.906Z" transform="translate(-1.474 -25.286)" fill="#92563a"/>
          <path id="Path_254" data-name="Path 254" d="M7.872,99.717c4.292.073,8.585.078,12.878.093q9.708.035,19.416.077,10.533.047,21.066.109,8.913.055,17.826.138,3.1.032,6.193.079a4.907,4.907,0,0,0,2.964-.431,2.687,2.687,0,0,0,.432-4.034c-.857-.911-2-.859-3.149-.878q-1.393-.023-2.786-.04-3.595-.046-7.19-.075-9.512-.084-19.025-.13-10.543-.058-21.086-.1-9.139-.037-18.279-.067l-6.591-.021c-.792,0-1.584-.01-2.376-.007A2.741,2.741,0,1,0,7.874,99.9c.388.018.35-.54-.009-.557A2.174,2.174,0,0,1,7.885,95c.724-.032,1.458,0,2.182,0l6.045.01q8.493.016,16.985.036,10.072.025,20.144.061,9.472.035,18.944.09c4.469.028,8.938.054,13.407.122.371.006.746,0,1.116.018a2.236,2.236,0,0,1,2.207,2.213,2.266,2.266,0,0,1-2.083,2.244c-.4.032-.8,0-1.194,0q-2.837-.045-5.674-.067-8.316-.076-16.631-.106-9.993-.047-19.986-.074-9.618-.028-19.237-.047-7.043-.014-14.086,0c-.719,0-1.438.014-2.157.024a.1.1,0,1,0,0,.2Z" transform="translate(-1.368 -25.183)"/>
          <path id="Path_255" data-name="Path 255" d="M106.743,90.794c-.278-1.141-2.023-1.539-2.9-2.041-.755-.433-1.221-1.2-1.932-1.7a3.219,3.219,0,0,0-2.58-.555,17.442,17.442,0,0,0-3.065,1.264,5.642,5.642,0,0,1-3.609.169c-2.684-.582-8.93-2.048-11.635-2.522-.26-.046-.183.3.025.342,2.285.477,8.14,1.864,10.4,2.439,1.691.43,3.285.871,4.98.246.882-.325,1.7-.8,2.59-1.109a2.812,2.812,0,0,1,3.213.855,6.036,6.036,0,0,0,1.334,1.155c.586.331,1.225.562,1.8.909.493.3.99.86.217,1.259a7.439,7.439,0,0,1-2.2.408,40.15,40.15,0,0,1-4.575.316,87.65,87.65,0,0,1-9.618-.409c-1.255-.114-2.508-.246-3.757-.407-.378-.049-4.837-.655-5.217-.682-.106-.007-.269.616-.178.645.316.1,4.726.663,5.055.707,1.16.156,2.323.282,3.488.394a91.091,91.091,0,0,0,10.375.464,38.581,38.581,0,0,0,5.109-.385c.954-.145,3.037-.275,2.675-1.762Zm-22.8.474" transform="translate(-21.339 -22.776)"/>
        </g>
      </g>
    </g>
  </g>
</svg>
