<svg xmlns="http://www.w3.org/2000/svg" xmlns:xlink="http://www.w3.org/1999/xlink" width="120" height="120" viewBox="0 0 120 120">
  <defs>
    <clipPath id="clip-path">
      <circle id="Ellipse_9" data-name="Ellipse 9" cx="60" cy="60" r="60" transform="translate(270 2395)" fill="#fff"/>
    </clipPath>
  </defs>
  <g id="pool-table-img" transform="translate(-270 -2395)">
    <circle id="Ellipse_8" data-name="Ellipse 8" cx="60" cy="60" r="60" transform="translate(270 2395)" fill="#fff"/>
    <g id="Mask_Group_47" data-name="Mask Group 47" clip-path="url(#clip-path)">
      <g id="fill-pool-table" transform="translate(288 2413)">
        <g id="_x31_2_Pool_Table" transform="translate(0)">
          <g id="Group_785" data-name="Group 785">
            <path id="Path_218" data-name="Path 218" d="M75.464,4.729v74.8a3.479,3.479,0,0,1-3.48,3.479H23.989a3.478,3.478,0,0,1-3.479-3.479V4.729A3.478,3.478,0,0,1,23.989,1.25h48A3.478,3.478,0,0,1,75.464,4.729Z" transform="translate(-6.241 -0.38)" fill="#fab280"/>
            <path id="Path_219" data-name="Path 219" d="M26.764,83.011H23.989a3.478,3.478,0,0,1-3.479-3.479V4.729A3.478,3.478,0,0,1,23.989,1.25h2.775a3.478,3.478,0,0,0-3.479,3.479v74.8a3.478,3.478,0,0,0,3.479,3.479Z" transform="translate(-6.241 -0.38)" fill="#fff" opacity="0.5"/>
            <path id="Path_220" data-name="Path 220" d="M93.892,4.729v74.8a3.479,3.479,0,0,1-3.48,3.479H81.1a3.478,3.478,0,0,0,3.479-3.479V4.729A3.478,3.478,0,0,0,81.1,1.25h9.316A3.478,3.478,0,0,1,93.892,4.729Z" transform="translate(-24.669 -0.38)" opacity="0.15"/>
            <path id="Path_221" data-name="Path 221" d="M28.013,8.75H72.525V80.074H28.013Z" transform="translate(-8.523 -2.661)" fill="#2a4261"/>
            <path id="Path_222" data-name="Path 222" d="M28.01,8.75h2.783V80.074H28.01Z" transform="translate(-8.522 -2.661)" fill="#fff" opacity="0.5"/>
            <path id="Path_223" data-name="Path 223" d="M84,8.75h5.558V80.074H84Z" transform="translate(-25.551 -2.661)" opacity="0.15"/>
            <g id="Group_766" data-name="Group 766" transform="translate(17.519 4.126)">
              <path id="Path_224" data-name="Path 224" d="M91.938,9.217a3.288,3.288,0,1,1-.965-2.327,3.291,3.291,0,0,1,.965,2.327Z" transform="translate(-43.483 -5.93)" fill="#7c8a8d"/>
              <path id="Path_225" data-name="Path 225" d="M25.18,9.218a3.288,3.288,0,1,0,.965-2.327,3.291,3.291,0,0,0-.965,2.327Z" transform="translate(-25.18 -5.93)" fill="#7c8a8d"/>
              <path id="Path_226" data-name="Path 226" d="M91.938,58.563a3.288,3.288,0,1,1-.965-2.327A3.291,3.291,0,0,1,91.938,58.563Z" transform="translate(-43.483 -20.939)" fill="#7c8a8d"/>
              <path id="Path_227" data-name="Path 227" d="M25.18,58.563a3.288,3.288,0,1,0,.965-2.327A3.291,3.291,0,0,0,25.18,58.563Z" transform="translate(-25.18 -20.939)" fill="#7c8a8d"/>
              <path id="Path_228" data-name="Path 228" d="M25.18,107.905a3.288,3.288,0,1,1,.965,2.327A3.291,3.291,0,0,1,25.18,107.905Z" transform="translate(-25.18 -35.944)" fill="#7c8a8d"/>
              <path id="Path_229" data-name="Path 229" d="M91.938,107.905a3.288,3.288,0,1,0-.965,2.327A3.291,3.291,0,0,0,91.938,107.905Z" transform="translate(-43.483 -35.944)" fill="#7c8a8d"/>
            </g>
            <path id="Path_230" data-name="Path 230" d="M97.2,55.275v6.576H91.985v-.278a3.287,3.287,0,0,0,0-6.019v-.278Z" transform="translate(-27.98 -16.812)" fill="#a7b1b3"/>
            <path id="Path_231" data-name="Path 231" d="M23.763,58.563a3.28,3.28,0,0,0,1.966,3.009v.278H20.51V55.275h5.219v.278a3.3,3.3,0,0,0-1.966,3.009Z" transform="translate(-6.241 -16.812)" fill="#a7b1b3"/>
            <path id="Path_232" data-name="Path 232" d="M95.318,4.729v6.054H90.134a3.285,3.285,0,1,0-4.349-4.34V1.25h6.054a3.478,3.478,0,0,1,3.479,3.48Z" transform="translate(-26.095 -0.38)" fill="#a7b1b3"/>
            <path id="Path_233" data-name="Path 233" d="M20.51,4.729v6.054h5.184a3.285,3.285,0,1,1,4.349-4.34V1.25H23.989A3.478,3.478,0,0,0,20.51,4.73Z" transform="translate(-6.241 -0.38)" fill="#a7b1b3"/>
            <path id="Path_234" data-name="Path 234" d="M20.51,111.1V105.05h5.184a3.285,3.285,0,1,0,4.349,4.34v5.193H23.989a3.478,3.478,0,0,1-3.479-3.48Z" transform="translate(-6.241 -31.952)" fill="#a7b1b3"/>
            <path id="Path_235" data-name="Path 235" d="M95.318,111.1V105.05H90.134a3.285,3.285,0,1,1-4.349,4.34v5.193h6.054a3.478,3.478,0,0,0,3.479-3.48Z" transform="translate(-26.095 -31.952)" fill="#a7b1b3"/>
            <g id="Group_772" data-name="Group 772" transform="translate(30.643 16.895)">
              <g id="Group_770" data-name="Group 770">
                <g id="Group_767" data-name="Group 767">
                  <path id="Path_236" data-name="Path 236" d="M49.6,27.058a2.778,2.778,0,1,1-2.773-2.773A2.778,2.778,0,0,1,49.6,27.058Z" transform="translate(-44.04 -24.282)" fill="#fb888b"/>
                  <path id="Path_237" data-name="Path 237" d="M50.372,27.056a2.785,2.785,0,0,1-2.765,2.785,2.68,2.68,0,0,1-1-.184,2.781,2.781,0,0,0,0-5.194,2.68,2.68,0,0,1,1-.184,2.783,2.783,0,0,1,2.765,2.775Z" transform="translate(-44.821 -24.281)" opacity="0.15"/>
                </g>
                <g id="Group_768" data-name="Group 768" transform="translate(5.551)">
                  <path id="Path_238" data-name="Path 238" d="M57.572,27.058A2.778,2.778,0,1,1,54.8,24.285a2.778,2.778,0,0,1,2.773,2.773Z" transform="translate(-52.017 -24.282)" fill="#fb888b"/>
                  <path id="Path_239" data-name="Path 239" d="M58.349,27.056a2.785,2.785,0,0,1-2.765,2.785,2.68,2.68,0,0,1-1-.184,2.781,2.781,0,0,0,0-5.194,2.68,2.68,0,0,1,1-.184,2.783,2.783,0,0,1,2.765,2.775Z" transform="translate(-52.797 -24.281)" opacity="0.15"/>
                </g>
                <g id="Group_769" data-name="Group 769" transform="translate(11.101)">
                  <path id="Path_240" data-name="Path 240" d="M65.549,27.058a2.778,2.778,0,1,1-2.773-2.773,2.778,2.778,0,0,1,2.773,2.773Z" transform="translate(-59.994 -24.282)" fill="#fb888b"/>
                  <path id="Path_241" data-name="Path 241" d="M66.325,27.056a2.785,2.785,0,0,1-2.765,2.785,2.68,2.68,0,0,1-1-.184,2.781,2.781,0,0,0,0-5.194,2.68,2.68,0,0,1,1-.184,2.783,2.783,0,0,1,2.765,2.775Z" transform="translate(-60.775 -24.281)" opacity="0.15"/>
                </g>
              </g>
              <g id="Group_771" data-name="Group 771" transform="translate(16.652)">
                <path id="Path_242" data-name="Path 242" d="M73.526,27.058a2.778,2.778,0,1,1-2.773-2.773,2.778,2.778,0,0,1,2.773,2.773Z" transform="translate(-67.971 -24.282)" fill="#fb888b"/>
                <path id="Path_243" data-name="Path 243" d="M74.3,27.056a2.785,2.785,0,0,1-2.765,2.785,2.68,2.68,0,0,1-1-.184,2.781,2.781,0,0,0,0-5.194,2.68,2.68,0,0,1,1-.184A2.783,2.783,0,0,1,74.3,27.056Z" transform="translate(-68.751 -24.281)" opacity="0.15"/>
              </g>
            </g>
            <g id="Group_776" data-name="Group 776" transform="translate(33.418 21.701)">
              <g id="Group_773" data-name="Group 773" transform="translate(0 0)">
                <path id="Path_244" data-name="Path 244" d="M53.583,33.964a2.778,2.778,0,1,1-2.773-2.773A2.778,2.778,0,0,1,53.583,33.964Z" transform="translate(-48.028 -31.188)" fill="#fb888b"/>
                <path id="Path_245" data-name="Path 245" d="M54.36,33.962a2.785,2.785,0,0,1-2.766,2.785,2.68,2.68,0,0,1-1-.184,2.781,2.781,0,0,0,0-5.194,2.68,2.68,0,0,1,1-.184,2.783,2.783,0,0,1,2.765,2.775Z" transform="translate(-48.809 -31.186)" opacity="0.15"/>
              </g>
              <g id="Group_774" data-name="Group 774" transform="translate(5.551)">
                <path id="Path_246" data-name="Path 246" d="M61.561,33.964a2.778,2.778,0,1,1-2.773-2.773A2.778,2.778,0,0,1,61.561,33.964Z" transform="translate(-56.006 -31.188)" fill="#fb888b"/>
                <path id="Path_247" data-name="Path 247" d="M62.337,33.962a2.785,2.785,0,0,1-2.765,2.785,2.68,2.68,0,0,1-1-.184,2.781,2.781,0,0,0,0-5.194,2.68,2.68,0,0,1,1-.184,2.783,2.783,0,0,1,2.765,2.775Z" transform="translate(-56.786 -31.186)" opacity="0.15"/>
              </g>
              <g id="Group_775" data-name="Group 775" transform="translate(11.101)">
                <path id="Path_248" data-name="Path 248" d="M69.537,33.964a2.778,2.778,0,1,1-2.773-2.773A2.778,2.778,0,0,1,69.537,33.964Z" transform="translate(-63.982 -31.188)" fill="#fb888b"/>
                <path id="Path_249" data-name="Path 249" d="M70.314,33.962a2.785,2.785,0,0,1-2.765,2.785,2.68,2.68,0,0,1-1-.184,2.781,2.781,0,0,0,0-5.194,2.68,2.68,0,0,1,1-.184,2.783,2.783,0,0,1,2.765,2.775Z" transform="translate(-64.763 -31.186)" opacity="0.15"/>
              </g>
            </g>
            <g id="Group_779" data-name="Group 779" transform="translate(36.193 26.507)">
              <g id="Group_777" data-name="Group 777">
                <path id="Path_250" data-name="Path 250" d="M57.572,40.872A2.778,2.778,0,1,1,54.8,38.1,2.778,2.778,0,0,1,57.572,40.872Z" transform="translate(-52.017 -38.095)" fill="#fb888b"/>
                <path id="Path_251" data-name="Path 251" d="M58.349,40.87a2.785,2.785,0,0,1-2.765,2.785,2.68,2.68,0,0,1-1-.184,2.781,2.781,0,0,0,0-5.194,2.68,2.68,0,0,1,1-.184A2.783,2.783,0,0,1,58.349,40.87Z" transform="translate(-52.797 -38.094)" opacity="0.15"/>
              </g>
              <g id="Group_778" data-name="Group 778" transform="translate(5.551)">
                <path id="Path_252" data-name="Path 252" d="M65.549,40.872A2.778,2.778,0,1,1,62.776,38.1,2.778,2.778,0,0,1,65.549,40.872Z" transform="translate(-59.994 -38.095)" fill="#fb888b"/>
                <path id="Path_253" data-name="Path 253" d="M66.325,40.87a2.785,2.785,0,0,1-2.765,2.785,2.68,2.68,0,0,1-1-.184,2.781,2.781,0,0,0,0-5.194,2.68,2.68,0,0,1,1-.184,2.783,2.783,0,0,1,2.765,2.775Z" transform="translate(-60.775 -38.094)" opacity="0.15"/>
              </g>
            </g>
            <g id="Group_780" data-name="Group 780" transform="translate(38.969 31.317)">
              <path id="Path_254" data-name="Path 254" d="M61.561,47.784a2.778,2.778,0,1,1-2.773-2.773A2.778,2.778,0,0,1,61.561,47.784Z" transform="translate(-56.006 -45.008)" fill="#fb888b"/>
              <path id="Path_255" data-name="Path 255" d="M62.337,47.782a2.785,2.785,0,0,1-2.765,2.785,2.68,2.68,0,0,1-1-.183,2.781,2.781,0,0,0,0-5.194,2.68,2.68,0,0,1,1-.184,2.783,2.783,0,0,1,2.765,2.775Z" transform="translate(-56.786 -45.007)" opacity="0.15"/>
            </g>
            <g id="Group_781" data-name="Group 781" transform="translate(38.969 57.233)">
              <path id="Path_256" data-name="Path 256" d="M61.561,85.028a2.778,2.778,0,1,1-2.773-2.773,2.778,2.778,0,0,1,2.773,2.773Z" transform="translate(-56.006 -82.251)" fill="#fff"/>
              <path id="Path_257" data-name="Path 257" d="M62.337,85.025a2.785,2.785,0,0,1-2.765,2.785,2.68,2.68,0,0,1-1-.184,2.781,2.781,0,0,0,0-5.194,2.68,2.68,0,0,1,1-.184A2.783,2.783,0,0,1,62.337,85.025Z" transform="translate(-56.786 -82.25)" opacity="0.15"/>
            </g>
            <g id="Group_782" data-name="Group 782" transform="translate(0.866 16.674)">
              <path id="Path_258" data-name="Path 258" d="M5.7,25.119l2.067,62.2a2.517,2.517,0,0,1-2.515,2.6H3.77a2.517,2.517,0,0,1-2.515-2.6l2.067-62.2a1.191,1.191,0,0,1,2.379,0Z" transform="translate(-1.249 -23.966)" fill="#fab280"/>
              <path id="Path_259" data-name="Path 259" d="M1.827,90.241l-.573,17.236a2.517,2.517,0,0,0,2.515,2.6H5.253a2.517,2.517,0,0,0,2.515-2.6L7.2,90.241Z" transform="translate(-1.249 -44.122)" fill="#a7b1b3"/>
              <path id="Path_260" data-name="Path 260" d="M5.25,89.919H3.772a2.525,2.525,0,0,1-2.523-2.6l2.07-62.208a1.2,1.2,0,0,1,1.192-1.148,1.143,1.143,0,0,1,.783.3,1.166,1.166,0,0,0-.418.844L2.814,87.319a2.513,2.513,0,0,0,2.436,2.6Z" transform="translate(-1.248 -23.962)" fill="#fff" opacity="0.5"/>
              <path id="Path_261" data-name="Path 261" d="M8.775,87.319a2.513,2.513,0,0,1-2.514,2.6H4.784a.852.852,0,0,1-.209-.017,2.5,2.5,0,0,0,2.3-2.583L4.809,25.111a1.2,1.2,0,0,0-.235-.67,1.188,1.188,0,0,1,2.14.67Z" transform="translate(-2.259 -23.963)" opacity="0.15"/>
            </g>
            <g id="Group_783" data-name="Group 783" transform="translate(76.107 16.674)">
              <path id="Path_262" data-name="Path 262" d="M113.83,25.118l2.067,62.2a2.517,2.517,0,0,1-2.515,2.6H111.9a2.517,2.517,0,0,1-2.515-2.6l2.067-62.2a1.191,1.191,0,0,1,2.379,0Z" transform="translate(-109.379 -23.965)" fill="#fab280"/>
              <path id="Path_263" data-name="Path 263" d="M109.957,90.241l-.573,17.236a2.517,2.517,0,0,0,2.515,2.6h1.482a2.517,2.517,0,0,0,2.515-2.6l-.573-17.236Z" transform="translate(-109.379 -44.122)" fill="#a7b1b3"/>
              <path id="Path_264" data-name="Path 264" d="M113.379,89.919H111.9a2.525,2.525,0,0,1-2.522-2.6l2.07-62.208a1.2,1.2,0,0,1,1.192-1.148,1.143,1.143,0,0,1,.783.3,1.166,1.166,0,0,0-.417.844l-2.061,62.208a2.512,2.512,0,0,0,2.435,2.6Z" transform="translate(-109.377 -23.962)" fill="#fff" opacity="0.5"/>
              <path id="Path_265" data-name="Path 265" d="M116.9,87.319a2.513,2.513,0,0,1-2.514,2.6h-1.479a.852.852,0,0,1-.209-.017,2.5,2.5,0,0,0,2.3-2.583l-2.07-62.208a1.2,1.2,0,0,0-.235-.67,1.188,1.188,0,0,1,2.14.67Z" transform="translate(-110.389 -23.963)" opacity="0.15"/>
            </g>
            <g id="Group_784" data-name="Group 784">
              <path id="Path_266" data-name="Path 266" d="M71.6,0h-48A4.354,4.354,0,0,0,19.26,4.349v74.8A4.354,4.354,0,0,0,23.609,83.5h48a4.354,4.354,0,0,0,4.349-4.349V4.349A4.354,4.354,0,0,0,71.6,0ZM68.539,71.93a4.161,4.161,0,0,0-4.157,4.157,4.067,4.067,0,0,0,.046.455H30.785a4.072,4.072,0,0,0,.046-.455,4.161,4.161,0,0,0-4.157-4.157,4.1,4.1,0,0,0-.455.046V45.862a4.108,4.108,0,0,0,.455.046,4.157,4.157,0,1,0,0-8.314,4.1,4.1,0,0,0-.455.046V11.525a4.108,4.108,0,0,0,.455.046,4.161,4.161,0,0,0,4.157-4.157,4.066,4.066,0,0,0-.046-.455H64.428a4.072,4.072,0,0,0-.046.455,4.161,4.161,0,0,0,4.157,4.157A4.108,4.108,0,0,0,69,11.525V37.639a4.1,4.1,0,0,0-.457-.046,4.157,4.157,0,1,0,0,8.314A4.107,4.107,0,0,0,69,45.861V71.976a4.137,4.137,0,0,0-.456-.046ZM24.249,41.75a2.421,2.421,0,1,1,2.425,2.417A2.421,2.421,0,0,1,24.249,41.75ZM23.3,44.169H21V39.332h2.3A4.092,4.092,0,0,0,23.3,44.169Zm45.239,0a2.417,2.417,0,1,1,2.425-2.417,2.417,2.417,0,0,1-2.425,2.417Zm3.374-4.835h2.3v4.836h-2.3a4.092,4.092,0,0,0,0-4.836Zm-1.178-1.739V11.273h3.478V37.594Zm-2.2-27.762a2.421,2.421,0,0,1-2.417-2.417,2.393,2.393,0,0,1,.226-1.006l0-.009a2.417,2.417,0,1,1,2.186,3.433ZM64.681,5.219H30.533V1.74H64.681ZM29.091,7.414A2.421,2.421,0,1,1,26.674,5a2.421,2.421,0,0,1,2.417,2.417Zm-4.612,3.859v26.32H21V11.273ZM21,45.908h3.479v26.32H21ZM26.674,73.67a2.417,2.417,0,1,1-2.425,2.417,2.417,2.417,0,0,1,2.425-2.417Zm3.859,4.612H64.681v3.479H30.533Zm35.82-1.18-.005-.009a2.393,2.393,0,0,1-.226-1.006,2.439,2.439,0,1,1,.231,1.015Zm4.383-4.874V45.908h3.478v26.32ZM74.214,4.349V9.533H72.1a4.106,4.106,0,0,0,.6-2.119,4.165,4.165,0,0,0-4.165-4.157,4.112,4.112,0,0,0-2.119.6V1.74H71.6a2.612,2.612,0,0,1,2.609,2.609ZM23.609,1.74h5.184V3.857a4.111,4.111,0,0,0-2.12-.6,4.165,4.165,0,0,0-4.164,4.157,4.106,4.106,0,0,0,.6,2.119H21V4.349A2.612,2.612,0,0,1,23.609,1.74ZM21,79.152V73.968h2.111a4.106,4.106,0,0,0-.6,2.119,4.165,4.165,0,0,0,4.165,4.157,4.111,4.111,0,0,0,2.119-.6v2.117H23.609A2.612,2.612,0,0,1,21,79.152Zm50.6,2.609H66.421V79.644a4.111,4.111,0,0,0,2.119.6A4.165,4.165,0,0,0,72.7,76.088a4.107,4.107,0,0,0-.6-2.12h2.111v5.184A2.613,2.613,0,0,1,71.6,81.761Z" transform="translate(-5.86)"/>
              <path id="Path_267" data-name="Path 267" d="M63.094,23.035a3.632,3.632,0,0,0-2.772,1.3,3.609,3.609,0,0,0-5.556.011,3.6,3.6,0,0,0-5.554,0,3.637,3.637,0,1,0-3.428,5.918,3.555,3.555,0,0,0-.219,1.221,3.651,3.651,0,0,0,3,3.585,3.539,3.539,0,0,0-.224,1.221,3.652,3.652,0,0,0,3,3.586,3.588,3.588,0,0,0-.228,1.224,3.647,3.647,0,1,0,7.295,0,3.548,3.548,0,0,0-.227-1.223,3.65,3.65,0,0,0,3-3.587,3.582,3.582,0,0,0-.219-1.221,3.649,3.649,0,0,0,2.994-3.585,3.573,3.573,0,0,0-.221-1.22,3.643,3.643,0,0,0-.646-7.229Zm-7.461,3.622a1.906,1.906,0,1,1,3.812,0c0,.007,0,.014,0,.021s0,.014,0,.021a1.906,1.906,0,0,1-3.811,0c0-.007,0-.014,0-.021s0-.014,0-.021Zm-.864,2.924a1.905,1.905,0,1,1-1.351.555,1.908,1.908,0,0,1,1.351-.555Zm-2.776-4.806a1.905,1.905,0,1,1-1.35.555,1.908,1.908,0,0,1,1.35-.555Zm-7.463,1.9a1.907,1.907,0,0,1,3.813-.021c0,.007,0,.014,0,.021s0,.014,0,.021a1.907,1.907,0,1,1-3.813-.021Zm2.775,4.806a1.91,1.91,0,1,1,.56,1.352A1.908,1.908,0,0,1,47.305,31.484ZM51.992,38.2a1.908,1.908,0,1,1,1.9-1.912A1.908,1.908,0,0,1,51.992,38.2Zm2.776,4.809a1.908,1.908,0,1,1,1.9-1.911,1.908,1.908,0,0,1-1.9,1.911ZM57.543,38.2a1.908,1.908,0,1,1,1.9-1.912A1.908,1.908,0,0,1,57.543,38.2Zm2.775-4.807a1.908,1.908,0,1,1,1.9-1.911,1.908,1.908,0,0,1-1.9,1.911Zm2.776-4.805A1.908,1.908,0,1,1,65,26.678,1.908,1.908,0,0,1,63.094,28.59Z" transform="translate(-13.017 -7.006)"/>
              <path id="Path_268" data-name="Path 268" d="M58.408,81a3.647,3.647,0,1,0,3.643,3.643A3.647,3.647,0,0,0,58.408,81Zm0,5.554a1.908,1.908,0,1,1,1.9-1.911A1.908,1.908,0,0,1,58.408,86.559Z" transform="translate(-16.657 -24.638)"/>
              <path id="Path_269" data-name="Path 269" d="M6.19,24.706a2.06,2.06,0,0,0-4.117,0L.005,86.91a3.384,3.384,0,0,0,3.385,3.5H4.872a3.383,3.383,0,0,0,3.384-3.5C7.7,70.038,6.578,36.381,6.19,24.706Zm-2.379.058a.321.321,0,0,1,.641,0L5.916,68.833H2.346Zm1.062,63.9H3.39a1.647,1.647,0,0,1-1.647-1.7l.546-16.4H5.973l.545,16.4a1.646,1.646,0,0,1-1.646,1.7Z" transform="translate(-0.003 -6.908)"/>
              <path id="Path_270" data-name="Path 270" d="M114.319,24.707a2.06,2.06,0,0,0-4.118,0c-.384,11.567-1.5,45.257-2.067,62.2a3.383,3.383,0,0,0,3.384,3.5H113a3.383,3.383,0,0,0,3.384-3.5c-.559-16.814-1.68-50.547-2.067-62.2Zm-2.38.059a.321.321,0,0,1,.642,0l1.464,44.068h-3.57ZM113,88.67h-1.483a1.646,1.646,0,0,1-1.646-1.7l.545-16.4H114.1l.545,16.4A1.646,1.646,0,0,1,113,88.67Z" transform="translate(-32.892 -6.909)"/>
            </g>
          </g>
        </g>
      </g>
    </g>
  </g>
</svg>
