<svg xmlns="http://www.w3.org/2000/svg" xmlns:xlink="http://www.w3.org/1999/xlink" width="100" height="100" viewBox="0 0 100 100">
  <defs>
    <clipPath id="clip-path">
      <rect id="Rectangle_132" data-name="Rectangle 132" width="100" height="100" transform="translate(910 2586)" fill="#cc9b19"/>
    </clipPath>
  </defs>
  <g id="resistant-icon" transform="translate(-910 -2586)" clip-path="url(#clip-path)">
    <g id="liner-resident" transform="translate(908.386 2584.386)">
      <path id="Path_233" data-name="Path 233" d="M100,27.952H70.355V19.084a1.613,1.613,0,0,0-1.613-1.613H64.168V12.281a1.613,1.613,0,0,0-1.613-1.613h-7.83V7.251a1.613,1.613,0,1,0-3.226,0v3.417h-7.83a1.613,1.613,0,0,0-1.613,1.613v5.191H37.482a1.613,1.613,0,0,0-1.613,1.613V47.873l-4.125-1.862a1.613,1.613,0,0,0-1.327,0l-9.181,4.144v-.725a1.613,1.613,0,0,0-1.613-1.613H12.634a1.613,1.613,0,0,0-1.613,1.613v5.335L3.006,58.383a2.371,2.371,0,0,0,.975,4.53H6.548V88.551H3.864a1.613,1.613,0,0,0-1.613,1.613v5.812a1.613,1.613,0,0,0,1.613,1.613L100,97.579a1.613,1.613,0,0,0,1.613-1.613v-66.4A1.613,1.613,0,0,0,100,27.952ZM45.282,13.893H60.942v3.578H45.282ZM14.247,51.043H18.01v.568l-3.763,1.7ZM8.161,59.687h-.2L31.081,49.251,54.2,59.687H54A1.613,1.613,0,0,0,52.389,61.3V88.551H29.92v-15.9a1.613,1.613,0,0,0-1.613-1.613H15.568a1.613,1.613,0,0,0-1.613,1.613v15.9H9.774V61.3A1.613,1.613,0,0,0,8.161,59.687Zm52.281.143a2.351,2.351,0,0,0-1.287-1.447l-2.171-.98V55.795h4.035v4.035h-.576ZM26.694,88.551H17.18V74.265h9.513Zm29.99,5.812H5.477V91.777H56.684Zm-1.071-5.812V72.428h1.5a2.271,2.271,0,0,1,2.412,2.015V89.12a1.608,1.608,0,0,0-1.228-.568Zm11.516,5.8H62.75V74.442a5.456,5.456,0,0,0-5.638-5.24h-1.5V63.056h7.018a1.613,1.613,0,0,0,1.613-1.613v-7.26a1.613,1.613,0,0,0-1.613-1.613h-7.26a1.613,1.613,0,0,0-1.613,1.613v1.766L43.376,51.262a1.631,1.631,0,0,0,.217.016h7.26a1.613,1.613,0,0,0,1.613-1.613V42.4a1.613,1.613,0,0,0-1.613-1.613h-7.26A1.613,1.613,0,0,0,41.98,42.4v7.26a1.607,1.607,0,0,0,.558,1.218L39.1,49.329V20.7H67.129V94.353Zm-21.923-46.3V44.017H49.24v4.035Zm53.182,46.3H70.355V31.178H98.388ZM73.952,46.8H94.792A1.613,1.613,0,0,0,96.4,45.188V37.536a1.613,1.613,0,0,0-1.613-1.613H73.952a1.613,1.613,0,0,0-1.613,1.613v7.652A1.613,1.613,0,0,0,73.952,46.8Zm1.613-7.652H93.18v4.426H75.565ZM43.593,34.983H62.631a1.613,1.613,0,0,0,1.613-1.613V26.38a1.613,1.613,0,0,0-1.613-1.613H43.593A1.613,1.613,0,0,0,41.98,26.38v6.99A1.613,1.613,0,0,0,43.593,34.983Zm1.613-6.99H61.018v3.764H45.206Zm17.425,12.8h-7.26A1.613,1.613,0,0,0,53.758,42.4v7.26a1.613,1.613,0,0,0,1.613,1.613h7.26a1.613,1.613,0,0,0,1.613-1.613V42.4A1.613,1.613,0,0,0,62.631,40.792Zm-1.613,7.26H56.984V44.017h4.035Zm21.095,3.306h-7.26a1.613,1.613,0,0,0-1.613,1.613v7.26a1.613,1.613,0,0,0,1.613,1.613h7.26a1.613,1.613,0,0,0,1.613-1.613V52.971a1.613,1.613,0,0,0-1.613-1.613ZM80.5,58.619H76.466V54.584H80.5Zm13.391-7.261H86.63a1.613,1.613,0,0,0-1.613,1.613v7.26a1.613,1.613,0,0,0,1.613,1.613h7.26A1.613,1.613,0,0,0,95.5,60.232V52.971a1.613,1.613,0,0,0-1.613-1.613Zm-1.613,7.261H88.243V54.584h4.035ZM82.113,63.136h-7.26a1.613,1.613,0,0,0-1.613,1.613v7.26a1.613,1.613,0,0,0,1.613,1.613h7.26a1.613,1.613,0,0,0,1.613-1.613V64.749a1.613,1.613,0,0,0-1.613-1.613ZM80.5,70.4H76.466V66.362H80.5Zm13.391-7.26H86.63a1.613,1.613,0,0,0-1.613,1.613v7.26a1.613,1.613,0,0,0,1.613,1.613h7.26A1.613,1.613,0,0,0,95.5,72.01V64.749a1.613,1.613,0,0,0-1.613-1.613ZM92.278,70.4H88.243V66.362h4.035ZM82.113,74.914h-7.26a1.613,1.613,0,0,0-1.613,1.613v7.26A1.613,1.613,0,0,0,74.853,85.4h7.26a1.613,1.613,0,0,0,1.613-1.613v-7.26a1.613,1.613,0,0,0-1.613-1.613ZM80.5,82.175H76.466V78.14H80.5Zm13.391-7.26H86.63a1.613,1.613,0,0,0-1.613,1.613v7.26A1.613,1.613,0,0,0,86.63,85.4h7.26A1.613,1.613,0,0,0,95.5,83.787v-7.26a1.613,1.613,0,0,0-1.613-1.613Zm-1.613,7.26H88.243V78.14h4.035ZM33.845,76.6H46.089A1.613,1.613,0,0,0,47.7,74.991V66.12a1.613,1.613,0,0,0-1.613-1.613H33.845a1.613,1.613,0,0,0-1.613,1.613v8.871A1.613,1.613,0,0,0,33.845,76.6Zm1.613-8.871h9.018v5.645H35.458Z" fill="#cc9b19"/>
    </g>
  </g>
</svg>
