<svg xmlns="http://www.w3.org/2000/svg" xmlns:xlink="http://www.w3.org/1999/xlink" width="100" height="100" viewBox="0 0 100 100">
  <defs>
    <clipPath id="clip-path">
      <rect id="Rectangle_133" data-name="Rectangle 133" width="100" height="100" transform="translate(1245 2453)" fill="#cc9b19"/>
    </clipPath>
  </defs>
  <g id="road-icon" transform="translate(-1245 -2453)" clip-path="url(#clip-path)">
    <g id="liner-tranporation" transform="translate(1241.667 2449.667)">
      <path id="Path_236" data-name="Path 236" d="M80,56.667H68.333V60H80A20,20,0,1,1,60,80V68.333H56.667V80A23.333,23.333,0,1,0,80,56.667ZM46.667,80a20,20,0,1,1-20-20H38.333V56.667H26.667A23.333,23.333,0,1,0,50,80V68.333H46.667Zm-20-30h10V46.667h-10a20,20,0,1,1,20-20v1.667H50V26.667A23.333,23.333,0,1,0,26.667,50ZM60,26.667a20,20,0,1,1,20,20H70V50H80A23.333,23.333,0,1,0,56.667,26.667v1.667H60Z" fill="#cc9b19"/>
      <path id="Path_237" data-name="Path 237" d="M13.333,88.333H40v3.333H13.333Zm20-74.8,3.307-.413,3.333,26.659-3.307.413ZM16.672,39.794l3.333-26.659,3.307.413-3.333,26.66Zm9.994-6.461H30V40H26.667Zm0-10H30V30H26.667Zm0-10H30V20H26.667ZM78.333,10v1.667H75a5.006,5.006,0,0,0-5,5v10a5.006,5.006,0,0,0,2.92,4.545l-2.856,10,3.2.917,1.083-3.792h11.3l1.083,3.792,3.205-.917-2.856-10A5.006,5.006,0,0,0,90,26.667v-10a5.006,5.006,0,0,0-5-5H81.667V10ZM85,28.333H75a1.669,1.669,0,0,1-1.667-1.667V25H86.667v1.667A1.669,1.669,0,0,1,85,28.333ZM75.3,35l.952-3.333h7.485L84.7,35ZM86.667,16.667v5H73.333v-5A1.669,1.669,0,0,1,75,15H85a1.669,1.669,0,0,1,1.667,1.667ZM43.8,68.333H35.637l-2.873,5.745A1.658,1.658,0,0,1,31.273,75H30.3l1.667-10h-8l-5,10h-2.3a5,5,0,0,0,0,10H35.731a4.993,4.993,0,0,0,4.851-3.787Zm-17.771,0h2L26.922,75H22.7ZM37.348,80.4a1.665,1.665,0,0,1-1.617,1.263H16.667a1.667,1.667,0,0,1,0-3.333H31.273a4.972,4.972,0,0,0,4.472-2.764l1.951-3.9h1.835ZM78.333,63.333v3.333h-10V70H70v6.124l-3.333.952v1.257a16.06,16.06,0,0,0,2.456,8.523c-.1.1-.205.2-.3.3-.817.817-1.217,1.178-2.155,1.178v3.333a5.941,5.941,0,0,0,4.512-2.155c.817-.817,1.217-1.178,2.155-1.178s1.338.361,2.155,1.178a5.8,5.8,0,0,0,9.024,0c.816-.817,1.217-1.179,2.155-1.179s1.338.361,2.155,1.179a5.938,5.938,0,0,0,4.511,2.155V88.333c-.937,0-1.338-.361-2.155-1.179-.1-.1-.2-.2-.3-.3a16.061,16.061,0,0,0,2.457-8.524V77.076L90,76.124V70h1.667V66.667h-10V63.333ZM73.333,85a5.811,5.811,0,0,0-1.342.152,12.731,12.731,0,0,1-1.929-5.579l8.272-2.364V87.628q-.25-.231-.489-.473A5.941,5.941,0,0,0,73.333,85Zm13.333,0a5.942,5.942,0,0,0-4.512,2.155c-.179.179-.338.335-.487.472V77.21l8.272,2.364a12.731,12.731,0,0,1-1.93,5.58A5.814,5.814,0,0,0,86.667,85Zm0-9.829L80,73.267l-6.667,1.9V70H86.667ZM48.333,40v3.663L39.385,47.5l2.281,4.563v9.606H40V65H66.667V61.667H65V52.06L67.281,47.5l-8.948-3.835V40A5.008,5.008,0,0,0,55,35.287v-3.62H51.667v3.62A5.008,5.008,0,0,0,48.333,40ZM45,53.333h3.333v8.333H45Zm10,0v8.333H51.667V53.333Zm3.333,8.333V53.333h3.333v8.333ZM62.3,50H44.363l-.415-.831,9.385-4.021,9.385,4.022Zm-8.97-8.479-1.667.714V40A1.667,1.667,0,0,1,55,40v2.234Z" fill="#cc9b19"/>
    </g>
  </g>
</svg>
