<svg xmlns="http://www.w3.org/2000/svg" xmlns:xlink="http://www.w3.org/1999/xlink" width="120" height="120" viewBox="0 0 120 120">
  <defs>
    <clipPath id="clip-path">
      <circle id="Ellipse_9" data-name="Ellipse 9" cx="60" cy="60" r="60" transform="translate(270 2395)" fill="#fff"/>
    </clipPath>
  </defs>
  <g id="steam-bath-img" transform="translate(-270 -2395)">
    <circle id="Ellipse_8" data-name="Ellipse 8" cx="60" cy="60" r="60" transform="translate(270 2395)" fill="#fff"/>
    <g id="Mask_Group_48" data-name="Mask Group 48" clip-path="url(#clip-path)">
      <g id="Page-1" transform="translate(289 2414)">
        <g id="_010---Bath-and-Shower" data-name="010---Bath-and-Shower" transform="translate(0 0)">
          <g id="Group_766" data-name="Group 766" transform="translate(1.374 1.374)">
            <path id="Shape" d="M79.473,70.247v5.5A16.469,16.469,0,0,1,62.979,92.239H24.494A16.469,16.469,0,0,1,8,75.745V62H23.655a13.706,13.706,0,0,1,8.975,3.354,20.087,20.087,0,0,0,10.322,4.618v.014a23.367,23.367,0,0,0,3.532.261h2.749v12.37a2.757,2.757,0,0,0,2.749,2.749H67.653A2.757,2.757,0,0,0,70.4,82.617V70.247Z" transform="translate(-3.877 -20.765)" fill="#2a4261"/>
            <path id="Shape-2" data-name="Shape" d="M44.078,69.972v.014a23.367,23.367,0,0,0,3.532.261h2.749v12.37a2.757,2.757,0,0,0,2.749,2.749h4.123a2.757,2.757,0,0,1-2.749-2.749V70.247H51.734a23.367,23.367,0,0,1-3.532-.261v-.014a20.087,20.087,0,0,1-10.322-4.618A13.706,13.706,0,0,0,28.9,62H24.78a13.706,13.706,0,0,1,8.975,3.354,20.087,20.087,0,0,0,10.322,4.618Z" transform="translate(-9.125 -20.765)" fill="#00838f"/>
            <path id="Shape-3" data-name="Shape" d="M98.494,74v5.5A16.469,16.469,0,0,1,82,95.992h4.123A16.469,16.469,0,0,0,102.617,79.5V74Z" transform="translate(-27.02 -24.518)" fill="#00838f"/>
            <path id="Shape-4" data-name="Shape" d="M47.358,63.682v3.436H44.609a23.366,23.366,0,0,1-3.532-.261v-.014a20.087,20.087,0,0,1-10.322-4.618,13.706,13.706,0,0,0-8.975-3.354H3.374A1.374,1.374,0,0,1,2,57.5V56.122A4.123,4.123,0,0,1,6.123,52H21.243A21.045,21.045,0,0,1,35.1,56.892a12.428,12.428,0,0,0,1.773,1.292,13.6,13.6,0,0,0,7.051,2.062A3.427,3.427,0,0,1,47.1,62.362,3.325,3.325,0,0,1,47.358,63.682Z" transform="translate(-2 -17.636)" fill="#f5f5f5"/>
            <path id="Shape-5" data-name="Shape" d="M57,64a3.427,3.427,0,0,1,3.175,2.117,3.325,3.325,0,0,1,.261,1.32v3.387c.458.026.915.049,1.374.049H64.56V67.436a3.325,3.325,0,0,0-.261-1.32A3.427,3.427,0,0,0,61.123,64" transform="translate(-19.202 -21.391)" fill="#cfd8dc"/>
            <path id="Shape-6" data-name="Shape" d="M111.682,68.123V69.5a1.374,1.374,0,0,1-1.374,1.374H98.487V67.436A8.966,8.966,0,0,0,97.8,64h9.759A4.123,4.123,0,0,1,111.682,68.123Z" transform="translate(-31.962 -21.391)" fill="#f5f5f5"/>
            <path id="Shape-7" data-name="Shape" d="M110.123,64H106a4.123,4.123,0,0,1,4.123,4.123V69.5a1.374,1.374,0,0,1-1.374,1.374h4.123a1.374,1.374,0,0,0,1.374-1.374V68.123A4.123,4.123,0,0,0,110.123,64Z" transform="translate(-34.527 -21.391)" fill="#cfd8dc"/>
            <path id="Shape-8" data-name="Shape" d="M28.274,105a9.155,9.155,0,0,0-3.849,7.01,1.375,1.375,0,0,1-1.361,1.237h-9.69A1.374,1.374,0,0,1,12,111.872V110.5a2.757,2.757,0,0,1,2.749-2.749H17.5V102.8a16.391,16.391,0,0,0,8.247,2.2Z" transform="translate(-5.128 -33.526)" fill="#b73437"/>
            <path id="Shape-9" data-name="Shape" d="M28.247,105A16.391,16.391,0,0,1,20,102.8v1.67a16.561,16.561,0,0,0,4.123.529h2.529a9.155,9.155,0,0,0-3.849,7.01,1.375,1.375,0,0,1-1.361,1.237h4.123a1.375,1.375,0,0,0,1.361-1.237A9.155,9.155,0,0,1,30.776,105Z" transform="translate(-7.63 -33.526)" fill="#fec108"/>
            <path id="Shape-10" data-name="Shape" d="M100.594,110.5v1.374a1.374,1.374,0,0,1-1.374,1.374h-9.69a1.375,1.375,0,0,1-1.361-1.237A9.155,9.155,0,0,0,84.32,105h2.529a16.391,16.391,0,0,0,8.247-2.2v4.948h2.749a2.757,2.757,0,0,1,2.749,2.749Z" transform="translate(-27.746 -33.526)" fill="#b73437"/>
            <path id="Shape-11" data-name="Shape" d="M100.872,107.748H98.123V102.8A16.265,16.265,0,0,1,94,104.47v3.278h2.749A2.757,2.757,0,0,1,99.5,110.5v1.374a1.374,1.374,0,0,1-1.374,1.374h4.123a1.374,1.374,0,0,0,1.374-1.374V110.5a2.757,2.757,0,0,0-2.749-2.749Z" transform="translate(-30.774 -33.526)" fill="#fec108"/>
            <path id="Shape-12" data-name="Shape" d="M71.474,83.5h-5.5a2.757,2.757,0,0,1-2.749-2.749c0-17.2.106-16.249-.261-17.126a3.427,3.427,0,0,0-3.175-2.117,13.6,13.6,0,0,1-7.051-2.062,8.951,8.951,0,0,1,15.985,5.5V80.749A2.757,2.757,0,0,0,71.474,83.5Z" transform="translate(-17.869 -18.897)" fill="#ad1457"/>
            <path id="Shape-13" data-name="Shape" d="M88.053,64.934V80.741A2.757,2.757,0,0,1,85.3,83.49H75.133a2.757,2.757,0,0,1-2.749-2.749V64.934A8.92,8.92,0,0,0,64,56.027V56H79.119a8.934,8.934,0,0,1,8.934,8.934Z" transform="translate(-21.391 -18.889)" fill="#b73437"/>
            <path id="Shape-14" data-name="Shape" d="M92.37,61.5A8.959,8.959,0,0,0,84.123,56H80a8.934,8.934,0,0,1,8.934,8.934V80.741a2.757,2.757,0,0,1-2.749,2.749h4.123a2.757,2.757,0,0,0,2.749-2.749V64.934A8.966,8.966,0,0,0,92.37,61.5Z" transform="translate(-26.395 -18.889)" fill="#ad1457"/>
            <path id="Shape-15" data-name="Shape" d="M37.882,8.886,33.428,4.419A8.18,8.18,0,0,0,27.587,2h-7.34A8.247,8.247,0,0,0,12,10.247V36.362h5.5V10.247A2.757,2.757,0,0,1,20.247,7.5h7.34a2.734,2.734,0,0,1,1.952.811l2.873,2.873" transform="translate(-5.128 -2)" fill="#7f8e94"/>
            <path id="Shape-16" data-name="Shape" d="M54.48,20.357a1.358,1.358,0,0,1-1.361,1.278H39.374A1.374,1.374,0,0,1,38,20.261a8.162,8.162,0,0,1,2.543-5.938A8.247,8.247,0,0,1,54.48,20.357Z" transform="translate(-13.259 -5.142)" fill="#9e9e9e"/>
            <path id="Shape-17" data-name="Shape" d="M47,12.308a8.472,8.472,0,0,1,6.171,8.052,1.358,1.358,0,0,1-1.361,1.278h4.123a1.358,1.358,0,0,0,1.361-1.278A8.257,8.257,0,0,0,47,12.308Z" transform="translate(-16.074 -5.144)" fill="#707070"/>
          </g>
          <path id="Shape-18" data-name="Shape" d="M61.994,24v.289a.907.907,0,0,0-.014-.192.234.234,0,0,0,.014-.1Z" transform="translate(-19.385 -7.506)" fill="none" stroke="#000" stroke-linecap="round" stroke-linejoin="round" stroke-width="4" fill-rule="evenodd"/>
          <path id="Shape-19" data-name="Shape" d="M26.37,93.745A12.384,12.384,0,0,1,14,81.374a1.374,1.374,0,1,1,2.749,0A9.632,9.632,0,0,0,26.37,91a1.374,1.374,0,1,1,0,2.749Z" transform="translate(-4.379 -25.02)" fill="#f5f5f5"/>
          <path id="Shape-20" data-name="Shape" d="M78.346,56.354V52.23H79.72a2.749,2.749,0,0,0,2.749-2.749V48.107a5.5,5.5,0,0,0-5.5-5.5h-8.92a10.27,10.27,0,0,0-9.085-5.5H43.846a10.36,10.36,0,0,0-7.822,3c-3.919-2.936-7.677-5.749-15.407-5.749h-5.5V9.621a1.374,1.374,0,0,1,1.374-1.374h7.34a1.363,1.363,0,0,1,.98.412l1.953,1.953a9.612,9.612,0,0,0-2.026,5.881,2.749,2.749,0,0,0,2.749,2.749H41.235a2.8,2.8,0,0,0,2.749-2.466,9.781,9.781,0,0,0-8.367-9.825c-.307-.038-.613-.058-.92-.067L30.651,2.822A9.569,9.569,0,0,0,23.834,0h-7.34A9.632,9.632,0,0,0,6.872,9.621V34.362H5.5A5.5,5.5,0,0,0,0,39.86v1.374a2.749,2.749,0,0,0,2.749,2.749H4.123v12.37A17.857,17.857,0,0,0,12.37,71.387v2.836H11a4.123,4.123,0,0,0-4.123,4.123V79.72h-5.5a1.374,1.374,0,1,0,0,2.749h79.72a1.374,1.374,0,0,0,0-2.749H75.6V78.346a4.123,4.123,0,0,0-4.123-4.123H70.1V71.387a17.857,17.857,0,0,0,8.247-15.033Zm1.374-8.247v1.374H69.274V47.42a10.237,10.237,0,0,0-.21-2.062h7.907A2.749,2.749,0,0,1,79.72,48.107Zm-13.776-3.6a7.56,7.56,0,0,1,.581,2.91V63.226A1.374,1.374,0,0,1,65.151,64.6H54.979a1.374,1.374,0,0,1-1.374-1.374V47.42A10.276,10.276,0,0,0,50.3,39.86h8.669a7.56,7.56,0,0,1,6.979,4.651ZM48.107,47.42a4.654,4.654,0,0,0-.367-1.846,4.793,4.793,0,0,0-4.422-2.965,12.2,12.2,0,0,1-4.8-1.047A7.56,7.56,0,0,1,50.856,47.42V63.226a4.077,4.077,0,0,0,.253,1.374H49.482a1.374,1.374,0,0,1-1.374-1.374ZM41.235,16.494H27.49a6.9,6.9,0,0,1,6.863-6.872,6.969,6.969,0,0,1,6.882,6.872ZM9.621,9.621a6.881,6.881,0,0,1,6.872-6.872h7.34A6.839,6.839,0,0,1,28.7,4.764l2.612,2.618a9.6,9.6,0,0,0-2.573,1.313L26.757,6.712A4.106,4.106,0,0,0,23.834,5.5h-7.34A4.123,4.123,0,0,0,12.37,9.621V34.362H9.621ZM2.749,39.86A2.749,2.749,0,0,1,5.5,37.111H20.617a19.635,19.635,0,0,1,12.95,4.554,13.694,13.694,0,0,0,1.95,1.424,14.99,14.99,0,0,0,7.763,2.269H43.3a2.062,2.062,0,0,1,2.062,2.062v2.062H43.984a19.7,19.7,0,0,1-12.955-4.556,15.077,15.077,0,0,0-9.876-3.69H2.749ZM6.872,56.354V43.984H21.153A12.332,12.332,0,0,1,29.226,47,22.394,22.394,0,0,0,43.984,52.23h1.374v11a4.123,4.123,0,0,0,4.123,4.123H65.151a4.123,4.123,0,0,0,4.123-4.123v-11H75.6v4.123A15.137,15.137,0,0,1,60.477,71.473H21.992A15.137,15.137,0,0,1,6.872,56.354ZM24.991,74.222H57.478a7.756,7.756,0,0,1,2.914,5.5H22.076a7.763,7.763,0,0,1,2.915-5.5Zm-15.37,5.5V78.346A1.374,1.374,0,0,1,11,76.971h2.749A1.374,1.374,0,0,0,15.119,75.6V72.848a17.742,17.742,0,0,0,6.147,1.341,11.061,11.061,0,0,0-1.955,5.531Zm59.1-2.749h2.749a1.374,1.374,0,0,1,1.374,1.374V79.72H63.165A11.1,11.1,0,0,0,61.2,74.185a17.742,17.742,0,0,0,6.147-1.337V75.6A1.374,1.374,0,0,0,68.724,76.971Z" transform="translate(0 0)"/>
          <path id="Shape-21" data-name="Shape" d="M48,33.374v6.872a1.374,1.374,0,1,0,2.749,0V33.374a1.374,1.374,0,1,0-2.749,0Z" transform="translate(-15.012 -10.008)"/>
          <path id="Shape-22" data-name="Shape" d="M38.846,32.863,36.1,39.735a1.375,1.375,0,0,0,2.554,1.023L41.4,33.885a1.375,1.375,0,1,0-2.554-1.023Z" transform="translate(-11.259 -10.008)"/>
          <path id="Shape-23" data-name="Shape" d="M58.651,32.863A1.375,1.375,0,1,0,56.1,33.885l2.749,6.872A1.375,1.375,0,0,0,61.4,39.735Z" transform="translate(-17.514 -10.008)"/>
        </g>
      </g>
    </g>
  </g>
</svg>
