<svg xmlns="http://www.w3.org/2000/svg" xmlns:xlink="http://www.w3.org/1999/xlink" width="120" height="120" viewBox="0 0 120 120">
  <defs>
    <clipPath id="clip-path">
      <circle id="Ellipse_9" data-name="Ellipse 9" cx="60" cy="60" r="60" transform="translate(270 2395)" fill="#fff"/>
    </clipPath>
  </defs>
  <g id="table-tenis-img" transform="translate(-270 -2395)">
    <circle id="Ellipse_8" data-name="Ellipse 8" cx="60" cy="60" r="60" transform="translate(270 2395)" fill="#fff"/>
    <g id="Mask_Group_49" data-name="Mask Group 49" clip-path="url(#clip-path)">
      <g id="fill-table-tennis" transform="translate(286.89 2411.889)">
        <path id="Path_218" data-name="Path 218" d="M29.074,92.1l-6.362-6.362,5.667-7.1,7.8,7.8Z" transform="translate(-6.479 -22.51)" fill="#b73437"/>
        <path id="Path_219" data-name="Path 219" d="M23.8,86.82l-1.086-1.086,5.667-7.1,1.108,1.108Z" transform="translate(-6.479 -22.51)" fill="#ffbe40"/>
        <path id="Path_220" data-name="Path 220" d="M5.978,109.8l-4.256-4.256a1.489,1.489,0,0,1,0-2.106L16.57,88.59l6.362,6.362L8.085,109.8a1.489,1.489,0,0,1-2.106,0Z" transform="translate(-0.337 -25.365)" fill="#2a4261"/>
        <path id="Path_221" data-name="Path 221" d="M2.538,106.359l-.815-.815a1.489,1.489,0,0,1,0-2.106L16.57,88.59l1.086,1.086L2.8,104.5a2.112,2.112,0,0,0-.261,1.862Z" transform="translate(-0.337 -25.365)" fill="#4da6ff"/>
        <path id="Path_222" data-name="Path 222" d="M55.659,78.455A46.894,46.894,0,0,0,40.49,85.8l-2.742-2.742a49.9,49.9,0,0,1,14.2-5.835l5.905-.778Z" transform="translate(-10.79 -21.885)" fill="#f5f5f5"/>
        <path id="Path_223" data-name="Path 223" d="M39.257,61.1a49.937,49.937,0,0,1-5.835,14.2l-2.766-2.767a56.824,56.824,0,0,0,7.35-15.169h1.772Z" transform="translate(-8.757 -16.413)" fill="#f5f5f5"/>
        <path id="Path_224" data-name="Path 224" d="M31.764,73.641l-1.108-1.108a56.824,56.824,0,0,0,7.35-15.169h.767l-.431.711a48.441,48.441,0,0,1-6.579,15.566Z" transform="translate(-8.757 -16.413)" fill="#e6e6e6"/>
        <path id="Path_225" data-name="Path 225" d="M90.117,7.486c-9.73-9.73-27.441-7.795-39.558,4.323S36.507,41.637,46.237,51.367s27.441,7.794,39.557-4.323S99.847,17.216,90.117,7.486ZM82.506,43.755a30.366,30.366,0,0,1-17.89,9.019c-6.042.66-11.4-1.008-15.089-4.7s-5.357-9.048-4.7-15.089A30.367,30.367,0,0,1,53.849,15.1a30.365,30.365,0,0,1,17.89-9.019c6.042-.66,11.4,1.008,15.089,4.7s5.357,9.048,4.7,15.089a30.364,30.364,0,0,1-9.019,17.89Z" transform="translate(-11.446 -0.337)" fill="#393939"/>
        <path id="Path_226" data-name="Path 226" d="M46.237,51.366c-9.73-9.73-7.795-27.441,4.322-39.557C61.113,1.255,75.909-1.574,85.981,4.3c-.025-.01-19.511-7.532-34.576,8.824C32.835,33.287,46.237,51.366,46.237,51.366Z" transform="translate(-11.447 -0.338)" fill="#343434"/>
        <path id="Path_227" data-name="Path 227" d="M79.262,6.558C74.373,1.669,67.424-.559,59.695.286A35.864,35.864,0,0,0,38.52,10.88,35.862,35.862,0,0,0,27.925,32.055a26.875,26.875,0,0,0,.45,8.882A55.819,55.819,0,0,1,21.219,55.63l-5.613,7.037L.792,77.48a2.327,2.327,0,0,0,0,3.291l4.255,4.255a2.327,2.327,0,0,0,3.291,0L23.153,70.212l7.055-5.627a45.313,45.313,0,0,1,14.673-7.142,25.777,25.777,0,0,0,5.714.626,29.2,29.2,0,0,0,3.169-.175A35.864,35.864,0,0,0,74.94,47.3,35.862,35.862,0,0,0,85.534,26.124c.844-7.728-1.383-14.677-6.272-19.566ZM25.729,58.768a48.347,48.347,0,0,0,4.979-11.739,21.274,21.274,0,0,0,8.121,8.1,48.371,48.371,0,0,0-11.754,4.984Zm3.876-13.99A50.5,50.5,0,0,1,24.51,57.549l-1.538-1.538A58.628,58.628,0,0,0,29.2,43.746c.127.348.26.693.4,1.032ZM7.154,83.843a.668.668,0,0,1-.921,0L1.976,79.587a.652.652,0,0,1,0-.921L16.232,64.41l5.178,5.178Zm15.5-15.376-5.3-5.3,4.616-5.787,6.475,6.475Zm7.125-5.646-1.487-1.487a50.537,50.537,0,0,1,12.791-5.1q.472.2.955.374a45.922,45.922,0,0,0-12.258,6.213ZM73.755,46.116C61.984,57.887,44.769,59.827,35.382,50.438s-7.449-26.6,4.322-38.374C46.456,5.312,55,1.8,62.828,1.8A21.164,21.164,0,0,1,78.078,7.741c9.388,9.389,7.449,26.6-4.322,38.374ZM60.2,4.91A31.2,31.2,0,0,0,41.81,14.169,31.209,31.209,0,0,0,32.55,32.56c-.688,6.3,1.065,11.9,4.937,15.772a18.171,18.171,0,0,0,13.129,5.084,24.326,24.326,0,0,0,2.644-.147A31.2,31.2,0,0,0,71.65,44.01,31.209,31.209,0,0,0,80.91,25.619c.688-6.3-1.065-11.9-4.937-15.773S66.5,4.22,60.2,4.909ZM79.244,25.438q-.128,1.167-.368,2.329l-.36.36-4.295-4.3,4.774-4.774a20.693,20.693,0,0,1,.25,6.38Zm-45.03,7.305q.116-1.059.326-2.114l.134-.134,4.3,4.3-4.476,4.476a20.619,20.619,0,0,1-.28-6.524ZM66.372,18.351l-4.3,4.3-4.3-4.3,4.3-4.3ZM63.26,12.87l5.511-5.511A15.312,15.312,0,0,1,74.225,10.5l-6.668,6.669ZM51.115,22.646l-4.3-4.3,4.3-4.3,4.3,4.3Zm5.48-3.112,4.3,4.3-4.3,4.3-4.3-4.3Zm-6.665,4.3-4.3,4.3-4.3-4.3,4.3-4.3Zm-5.48,5.48-4.3,4.3-4.3-4.3,4.3-4.3ZM45.635,30.5l4.3,4.3-4.3,4.3-4.3-4.3Zm1.184-1.184,4.3-4.3,4.3,4.3-4.3,4.3ZM56.6,30.5l4.3,4.3-4.3,4.3-4.3-4.3Zm1.184-1.184,4.3-4.3,4.3,4.3-4.3,4.3Zm5.48-5.48,4.3-4.3,4.3,4.3-4.3,4.3ZM56.6,17.166l-4.3-4.3,4.3-4.3,4.3,4.3Zm-5.48-5.481L49.639,10.21a28.974,28.974,0,0,1,5.407-2.455ZM49.931,12.87l-4.3,4.3-2.222-2.223a32.756,32.756,0,0,1,5.472-4.278l-.579.579Zm-5.48,5.48-4.3,4.3-1.662-1.662-.067.067a32.684,32.684,0,0,1,3.811-4.915Zm-5.481,5.48-3.576,3.576a28.831,28.831,0,0,1,2.2-4.955Zm1.185,12.145,4.3,4.3-6.312,6.312A15.312,15.312,0,0,1,35,41.131Zm5.48,5.48,4.3,4.3-5.112,5.111a15.356,15.356,0,0,1-5.494-3.1Zm1.184-1.184,4.3-4.3,4.3,4.3-4.3,4.3ZM56.6,41.456l4.3,4.3-4.3,4.3-4.3-4.3Zm5.481,5.481,1.292,1.292a28.911,28.911,0,0,1-4.691,2.107Zm1.184-1.184,4.3-4.3,2.127,2.127a32.444,32.444,0,0,1-5.844,4.376l.814-.814Zm-1.184-1.185-4.3-4.3,4.3-4.3,4.3,4.3Zm1.184-9.776,4.3-4.3,4.3,4.3-4.3,4.3Zm5.481-5.481,4.3-4.3,4.3,4.3-4.3,4.3Zm4.3-6.665-4.3-4.3L75.4,11.687a15.355,15.355,0,0,1,3.1,5.494ZM60.382,6.575a22.59,22.59,0,0,1,2.455-.136,19.562,19.562,0,0,1,4.067.419l-4.829,4.828-4.3-4.3.489-.489C58.971,6.762,59.676,6.652,60.382,6.575Zm-7.306,45.03a20.683,20.683,0,0,1-6.38-.25l4.418-4.418,4.3,4.3,0,0q-1.161.24-2.33.368Zm17.8-9.2-2.136-2.136,4.3-4.3,1.357,1.357,1.185-1.185-1.357-1.357,3.754-3.754A31.062,31.062,0,0,1,70.877,42.407Z" transform="translate(0 0)"/>
      </g>
    </g>
  </g>
</svg>
