<svg xmlns="http://www.w3.org/2000/svg" xmlns:xlink="http://www.w3.org/1999/xlink" width="120" height="120" viewBox="0 0 120 120">
  <defs>
    <clipPath id="clip-path">
      <circle id="Ellipse_9" data-name="Ellipse 9" cx="60" cy="60" r="60" fill="#fff"/>
    </clipPath>
    <clipPath id="clip-path-2">
      <path id="path3591" d="M0-120H86.219v86.219H0Z" transform="translate(0 120)"/>
    </clipPath>
  </defs>
  <g id="vrv-img" transform="translate(-270 -2395)">
    <circle id="Ellipse_8" data-name="Ellipse 8" cx="60" cy="60" r="60" transform="translate(270 2395)" fill="#fff"/>
    <g id="Mask_Group_51" data-name="Mask Group 51" transform="translate(270 2395)" clip-path="url(#clip-path)">
      <g id="fill-meeting" transform="translate(17 17)">
        <g id="g3585">
          <g id="g3587">
            <g id="g3589" clip-path="url(#clip-path-2)">
              <g id="g3595" transform="translate(4.523 35.665)">
                <path id="path3597" d="M-7.747-5.237H-27.521v-8.574A4.794,4.794,0,0,1-22.727-18.6h10.186a4.794,4.794,0,0,1,4.794,4.794Z" transform="translate(27.521 18.605)" fill="#fff6e0"/>
              </g>
              <g id="g3599" transform="translate(61.922 35.665)">
                <path id="path3601" d="M-7.747-5.237H-27.521v-8.574A4.794,4.794,0,0,1-22.727-18.6h10.186a4.794,4.794,0,0,1,4.794,4.794Z" transform="translate(27.521 18.605)" fill="#fff6e0"/>
              </g>
              <g id="g3603" transform="translate(10.113 27.388)">
                <path id="path3605" d="M-8.186-6.212H-29.081V-14.1a7.967,7.967,0,0,1,7.967-7.967h4.961A7.967,7.967,0,0,1-8.186-14.1Z" transform="translate(29.081 22.066)" fill="#2a4261"/>
              </g>
              <g id="g3607" transform="translate(14.105 11.663)">
                <path id="path3609" d="M-2.532-7.2h-.014A6.448,6.448,0,0,1-8.994-13.65v-5.484a6.448,6.448,0,0,1,6.448-6.448h.014a6.448,6.448,0,0,1,6.448,6.448v5.484A6.448,6.448,0,0,1-2.532-7.2" transform="translate(8.994 25.582)" fill="#ffcab9"/>
              </g>
              <g id="g3611" transform="translate(17.192 11.663)">
                <path id="path3613" d="M-1.322,0h-.014A6.418,6.418,0,0,0-4.7.945a6.444,6.444,0,0,1,3.087,5.5v5.484a6.444,6.444,0,0,1-3.087,5.5,6.418,6.418,0,0,0,3.361.944h.014a6.448,6.448,0,0,0,6.448-6.448V6.448A6.448,6.448,0,0,0-1.322,0" transform="translate(4.697 0)" fill="#fabba7"/>
              </g>
              <g id="g3615" transform="translate(14.105 11.663)">
                <path id="path3617" d="M0-3.6V-6.329a6.458,6.458,0,0,1,6.455-6.462A6.458,6.458,0,0,1,12.91-6.329L0-3.6" transform="translate(0 12.791)" fill="#56575b"/>
              </g>
              <g id="g3619" transform="translate(17.192 11.663)">
                <path id="path3621" d="M-1.21-2.532v1.424L5.526-2.532A6.458,6.458,0,0,0-.929-8.994,6.418,6.418,0,0,0-4.3-8.045,6.459,6.459,0,0,1-1.21-2.532" transform="translate(4.297 8.994)" fill="#4a4a4c"/>
              </g>
              <g id="g3623" transform="translate(69.08 9.87)">
                <path id="path3625" d="M-1.548-8.669h0a3.95,3.95,0,0,1-3.95-3.95V-26.846a3.95,3.95,0,0,1,3.95-3.95,3.95,3.95,0,0,1,3.95,3.95v14.227a3.95,3.95,0,0,1-3.95,3.95" transform="translate(5.498 30.796)" fill="#4a4a4c"/>
              </g>
              <g id="g3627" transform="translate(55.212 27.388)">
                <path id="path3629" d="M-8.186-6.212H-29.081V-14.1a7.967,7.967,0,0,1,7.967-7.967h4.961A7.967,7.967,0,0,1-8.186-14.1Z" transform="translate(29.081 22.066)" fill="#2a4261"/>
              </g>
              <g id="g3631" transform="translate(59.204 18.111)">
                <path id="path3633" d="M-5.058,0V5.484a6.448,6.448,0,0,1-6.448,6.448h-.014a6.448,6.448,0,0,1-6.448-6.448V0Z" transform="translate(17.969)" fill="#ffcab9"/>
              </g>
              <g id="g3635" transform="translate(62.291 18.111)">
                <path id="path3637" d="M-1.21,0V5.484a6.444,6.444,0,0,1-3.087,5.5,6.417,6.417,0,0,0,3.361.944h.014A6.448,6.448,0,0,0,5.526,5.484V0Z" transform="translate(4.297)" fill="#fabba7"/>
              </g>
              <g id="g3639" transform="translate(59.204 11.663)">
                <path id="path3641" d="M0-3.6V-6.329a6.458,6.458,0,0,1,6.455-6.462A6.458,6.458,0,0,1,12.91-6.329L0-3.6" transform="translate(0 12.791)" fill="#56575b"/>
              </g>
              <g id="g3643" transform="translate(62.291 11.663)">
                <path id="path3645" d="M-1.21-2.532v1.424L5.526-2.532A6.458,6.458,0,0,0-.929-8.994,6.418,6.418,0,0,0-4.3-8.045,6.458,6.458,0,0,1-1.21-2.532" transform="translate(4.297 8.994)" fill="#4a4a4c"/>
              </g>
              <g id="g3647" transform="translate(1.263 36.445)">
                <path id="path3649" d="M-32.791-7.095c0,10-18.735,18.108-41.847,18.108s-41.847-8.107-41.847-18.108S-97.749-25.2-74.638-25.2-32.791-17.1-32.791-7.095" transform="translate(116.484 25.203)" fill="#cc8b66"/>
              </g>
              <g id="g3651" transform="translate(10.113 62.05)">
                <path id="path3653" d="M-8.186-5.947-29.081,1.78V-13.16a7.966,7.966,0,0,1,7.966-7.966h4.961A7.966,7.966,0,0,1-8.186-13.16Z" transform="translate(29.081 21.126)" fill="#2a4261"/>
              </g>
              <g id="g3655" transform="translate(14.105 46.325)">
                <path id="path3657" d="M-2.532-10.289h-.014a6.448,6.448,0,0,1-6.448-6.448V-30.1A6.448,6.448,0,0,1-2.546-36.55h.014A6.448,6.448,0,0,1,3.916-30.1v13.365a6.448,6.448,0,0,1-6.448,6.448" transform="translate(8.994 36.55)" fill="#56575b"/>
              </g>
              <g id="g3659" transform="translate(17.192 46.325)">
                <path id="path3661" d="M-1.322,0h-.014A6.418,6.418,0,0,0-4.7.945a6.444,6.444,0,0,1,3.087,5.5V19.813a6.443,6.443,0,0,1-3.087,5.5,6.418,6.418,0,0,0,3.361.945h.014a6.448,6.448,0,0,0,6.448-6.448V6.448A6.448,6.448,0,0,0-1.322,0" transform="translate(4.697 0)" fill="#4a4a4c"/>
              </g>
              <g id="g3663" transform="translate(55.212 62.05)">
                <path id="path3665" d="M-8.186-3.121a7.966,7.966,0,0,0-7.966-7.966h-4.961a7.966,7.966,0,0,0-7.966,7.966V6.853H-8.186Z" transform="translate(29.081 11.088)" fill="#2a4261"/>
              </g>
              <g id="g3667" transform="translate(59.204 46.325)">
                <path id="path3669" d="M-2.532-7.2h-.014A6.448,6.448,0,0,1-8.994-13.65v-5.484a6.448,6.448,0,0,1,6.448-6.448h.014a6.448,6.448,0,0,1,6.448,6.448v5.484A6.448,6.448,0,0,1-2.532-7.2" transform="translate(8.994 25.582)" fill="#424243"/>
              </g>
              <g id="g3671" transform="translate(62.291 46.325)">
                <path id="path3673" d="M-1.322,0h-.014A6.418,6.418,0,0,0-4.7.945a6.444,6.444,0,0,1,3.087,5.5v5.484a6.444,6.444,0,0,1-3.087,5.5,6.418,6.418,0,0,0,3.361.944h.014a6.448,6.448,0,0,0,6.448-6.448V6.448A6.448,6.448,0,0,0-1.322,0" transform="translate(4.697 0)" fill="#3d3e44"/>
              </g>
              <g id="g3675" transform="translate(4.523 70.328)">
                <path id="path3677" d="M-7.747-5.731H-24.368A3.152,3.152,0,0,1-27.52-8.884v-6.682a4.794,4.794,0,0,1,4.794-4.794h10.186a4.794,4.794,0,0,1,4.794,4.794Z" transform="translate(27.52 20.36)" fill="#fff6e0"/>
              </g>
              <g id="g3679" transform="translate(12.767 70.328)">
                <path id="path3681" d="M-2.639,0H-9.375A4.794,4.794,0,0,1-4.581,4.794v9.835H2.155V4.794A4.794,4.794,0,0,0-2.639,0" transform="translate(9.375)" fill="#fff0cc"/>
              </g>
              <g id="g3683" transform="translate(24.247 74.429)">
                <path id="path3685" d="M0-1.811,6.76-6.03a2.471,2.471,0,0,1,2.528-.106,2.471,2.471,0,0,1,1.3,2.173A2.47,2.47,0,0,1,9.466-1.9L0,4.094Z" transform="translate(0 6.433)" fill="#fff6e0"/>
              </g>
              <g id="g3687" transform="translate(51.339 74.429)">
                <path id="path3689" d="M-4.147-1.811l-6.76-4.219a2.471,2.471,0,0,0-2.528-.106,2.471,2.471,0,0,0-1.3,2.173A2.471,2.471,0,0,0-13.613-1.9l9.466,5.989Z" transform="translate(14.731 6.433)" fill="#fff6e0"/>
              </g>
              <g id="g3691" transform="translate(61.922 70.328)">
                <path id="path3693" d="M-6.512-5.731H-23.133v-9.835a4.794,4.794,0,0,1,4.794-4.794H-8.154A4.794,4.794,0,0,1-3.36-15.566v6.682A3.152,3.152,0,0,1-6.512-5.731" transform="translate(23.133 20.36)" fill="#fff6e0"/>
              </g>
              <g id="g3695" transform="translate(70.166 70.328)">
                <path id="path3697" d="M-2.639,0H-9.375A4.794,4.794,0,0,1-4.581,4.794v6.682a3.152,3.152,0,0,1-3.152,3.152H-1a3.152,3.152,0,0,0,3.152-3.152V4.794A4.794,4.794,0,0,0-2.639,0" transform="translate(9.375 0)" fill="#fff0cc"/>
              </g>
              <g id="g3699" transform="translate(39.051 45)">
                <path id="path3701" d="M-6.212-3.106a7.927,7.927,0,0,0-7.927-7.927,7.927,7.927,0,0,0-7.927,7.927,7.927,7.927,0,0,0,7.927,7.927,7.963,7.963,0,0,0,1.57-.156l3.66,2.146V2.849a7.906,7.906,0,0,0,2.7-5.955" transform="translate(22.065 11.033)" fill="#fff6e0"/>
              </g>
              <g id="g3703" transform="translate(31.05 11.771)">
                <path id="path3705" d="M0-3.106a7.927,7.927,0,0,1,7.927-7.927,7.927,7.927,0,0,1,7.927,7.927A7.927,7.927,0,0,1,7.927,4.821a7.962,7.962,0,0,1-1.569-.156L2.7,6.81V2.849A7.906,7.906,0,0,1,0-3.106" transform="translate(0 11.033)" fill="#fff6e0"/>
              </g>
              <g id="g3707" transform="translate(41.673 1.263)">
                <path id="path3709" d="M-6.212-3.106a7.927,7.927,0,0,0-7.927-7.927,7.927,7.927,0,0,0-7.927,7.927,7.927,7.927,0,0,0,7.927,7.927,7.963,7.963,0,0,0,1.57-.156L-8.909,6.81V2.849a7.906,7.906,0,0,0,2.7-5.955" transform="translate(22.066 11.033)" fill="#ffe6e6"/>
              </g>
              <g id="g3711" transform="translate(4.523 35.665)">
                <path id="path3713" d="M0-4.644V-11.7A4.794,4.794,0,0,1,4.794-16.5H5.58" transform="translate(0 16.496)" fill="none"/>
              </g>
              <g id="g3715" transform="translate(76.284 35.665)">
                <path id="path3717" d="M0,0H.618A4.794,4.794,0,0,1,5.412,4.794v6.89" fill="none"/>
              </g>
              <g id="g3719" transform="translate(10.113 27.827)">
                <path id="path3721" d="M0-6.105v-8.056a7.969,7.969,0,0,1,5.352-7.527" transform="translate(0 21.688)" fill="none"/>
              </g>
              <g id="g3723" transform="translate(25.715 27.848)">
                <path id="path3725" d="M0,0A7.969,7.969,0,0,1,5.292,7.507L5.334,9.36" fill="none"/>
              </g>
              <g id="g3727" transform="translate(14.105 11.663)">
                <path id="path3729" d="M-2.532-7.2h-.014A6.448,6.448,0,0,1-8.994-13.65v-5.484a6.448,6.448,0,0,1,6.448-6.448h.014a6.448,6.448,0,0,1,6.448,6.448v5.484A6.448,6.448,0,0,1-2.532-7.2Z" transform="translate(8.994 25.582)" fill="none"/>
              </g>
              <g id="g3731" transform="translate(14.105 11.663)">
                <path id="path3733" d="M0-3.6V-6.329a6.458,6.458,0,0,1,6.455-6.462A6.458,6.458,0,0,1,12.91-6.329L0-3.6" transform="translate(0 12.791)" fill="none"/>
              </g>
              <g id="g3735" transform="translate(69.285 9.87)">
                <path id="path3737" d="M0-1.054A3.95,3.95,0,0,1,7.695.205V14.432a3.945,3.945,0,0,1-1.606,3.179" transform="translate(0 3.745)" fill="none"/>
              </g>
              <g id="g3739" transform="translate(70.814 27.848)">
                <path id="path3741" d="M0,0A7.969,7.969,0,0,1,5.293,7.507v8.056" fill="none"/>
              </g>
              <g id="g3743" transform="translate(55.212 27.847)">
                <path id="path3745" d="M0-3.671V-5.532a7.969,7.969,0,0,1,5.294-7.507" transform="translate(0 13.039)" fill="none"/>
              </g>
              <g id="g3747" transform="translate(59.204 11.663)">
                <path id="path3749" d="M-2.532-7.2h-.014A6.448,6.448,0,0,1-8.994-13.65v-5.484a6.448,6.448,0,0,1,6.448-6.448h.014a6.448,6.448,0,0,1,6.448,6.448v5.484A6.448,6.448,0,0,1-2.532-7.2Z" transform="translate(8.994 25.582)" fill="none"/>
              </g>
              <g id="g3751" transform="translate(59.204 11.663)">
                <path id="path3753" d="M0-3.6V-6.329a6.458,6.458,0,0,1,6.455-6.462A6.458,6.458,0,0,1,12.91-6.329L0-3.6" transform="translate(0 12.791)" fill="none"/>
              </g>
              <g id="g3755" transform="translate(31.109 71.905)">
                <path id="path3757" d="M-9.395,0A93.858,93.858,0,0,1-21.372.751a93.863,93.863,0,0,1-12-.756" transform="translate(33.373 0.004)" fill="none"/>
              </g>
              <g id="g3759" transform="translate(49.223 36.637)">
                <path id="path3761" d="M0,0C20.213,1.281,35.733,8.814,35.733,17.916c0,4.4-3.626,8.433-9.655,11.57" fill="none"/>
              </g>
              <g id="g3763" transform="translate(1.263 36.519)">
                <path id="path3765" d="M-3.817-11.617c-6.081-3.144-9.741-7.195-9.741-11.615,0-9.445,16.712-17.2,38.039-18.034" transform="translate(13.558 41.265)" fill="none"/>
              </g>
              <g id="g3767" transform="translate(10.113 63.314)">
                <path id="path3769" d="M0-2.626a7.96,7.96,0,0,1,3.658-6.7" transform="translate(0 9.328)" fill="none"/>
              </g>
              <g id="g3771" transform="translate(27.276 63.268)">
                <path id="path3773" d="M0,0A7.961,7.961,0,0,1,3.731,6.749v4.745" fill="none"/>
              </g>
              <g id="g3775" transform="translate(14.105 46.325)">
                <path id="path3777" d="M-.555-9.343A6.422,6.422,0,0,1-1.97-13.374V-26.739a6.448,6.448,0,0,1,6.449-6.449h.014a6.448,6.448,0,0,1,6.448,6.448v13.365A6.449,6.449,0,0,1,7.256-7.547" transform="translate(1.97 33.188)" fill="none"/>
              </g>
              <g id="g3779" transform="translate(70.734 62.482)">
                <path id="path3781" d="M-2.105-3.076v-.317a7.969,7.969,0,0,0-5.373-7.535" transform="translate(7.478 10.928)" fill="none"/>
              </g>
              <g id="g3783" transform="translate(55.212 62.467)">
                <path id="path3785" d="M-2.123,0A7.969,7.969,0,0,0-7.54,7.55v4.807" transform="translate(7.54)" fill="none"/>
              </g>
              <g id="g3787" transform="translate(59.204 46.325)">
                <path id="path3789" d="M-2.532-7.2h-.014A6.448,6.448,0,0,1-8.994-13.65v-5.484a6.448,6.448,0,0,1,6.448-6.448h.014a6.448,6.448,0,0,1,6.448,6.448v5.484A6.448,6.448,0,0,1-2.532-7.2Z" transform="translate(8.994 25.582)" fill="none"/>
              </g>
              <g id="g3791" transform="translate(4.523 70.328)">
                <path id="path3793" d="M-7.747-5.731H-24.368A3.152,3.152,0,0,1-27.52-8.884v-6.682a4.794,4.794,0,0,1,4.794-4.794h10.186a4.794,4.794,0,0,1,4.794,4.794Z" transform="translate(27.52 20.36)" fill="none"/>
              </g>
              <g id="g3795" transform="translate(24.247 74.429)">
                <path id="path3797" d="M0-1.811,6.76-6.03a2.471,2.471,0,0,1,2.528-.106,2.471,2.471,0,0,1,1.3,2.173A2.47,2.47,0,0,1,9.466-1.9L0,4.094" transform="translate(0 6.433)" fill="none"/>
              </g>
              <g id="g3799" transform="translate(51.339 74.429)">
                <path id="path3801" d="M-4.147-1.811l-6.76-4.219a2.471,2.471,0,0,0-2.528-.106,2.471,2.471,0,0,0-1.3,2.173A2.471,2.471,0,0,0-13.613-1.9l9.466,5.989Z" transform="translate(14.731 6.433)" fill="none"/>
              </g>
              <g id="g3803" transform="translate(61.922 70.328)">
                <path id="path3805" d="M-7.747-1.944v-.169a4.794,4.794,0,0,0-4.794-4.794H-22.727a4.794,4.794,0,0,0-4.794,4.794V7.722H-10.9A3.15,3.15,0,0,0-7.757,4.758" transform="translate(27.521 6.907)" fill="none"/>
              </g>
              <g id="g3807" transform="translate(39.051 45)">
                <path id="path3809" d="M-6.212-3.106a7.927,7.927,0,0,0-7.927-7.927,7.927,7.927,0,0,0-7.927,7.927,7.927,7.927,0,0,0,7.927,7.927,7.963,7.963,0,0,0,1.57-.156l3.66,2.146V2.849A7.906,7.906,0,0,0-6.212-3.106Z" transform="translate(22.065 11.033)" fill="none"/>
              </g>
              <g id="g3811" transform="translate(41.991 51.782)">
                <path id="path3813" d="M-.478-.99a1.264,1.264,0,0,0,0-2.526,1.264,1.264,0,0,0,0,2.526" transform="translate(1.698 3.516)"/>
              </g>
              <g id="g3815" transform="translate(45.758 51.782)">
                <path id="path3817" d="M-.478-.99a1.264,1.264,0,0,0,0-2.526,1.264,1.264,0,0,0,0,2.526" transform="translate(1.698 3.516)"/>
              </g>
              <g id="g3819" transform="translate(49.525 51.782)">
                <path id="path3821" d="M-.478-.99a1.264,1.264,0,0,0,0-2.526,1.264,1.264,0,0,0,0,2.526" transform="translate(1.698 3.516)"/>
              </g>
              <g id="g3823" transform="translate(31.05 11.771)">
                <path id="path3825" d="M-5.968-1.9a7.9,7.9,0,0,1,.621,3.082A7.927,7.927,0,0,1-13.274,9.11a7.961,7.961,0,0,1-1.569-.156L-18.5,11.1V7.138a7.906,7.906,0,0,1-2.7-5.955,7.927,7.927,0,0,1,7.927-7.927,7.9,7.9,0,0,1,3.085.623" transform="translate(21.201 6.744)" fill="none"/>
              </g>
              <g id="g3827" transform="translate(33.99 18.553)">
                <path id="path3829" d="M-.478-.99a1.264,1.264,0,0,0,0-2.526,1.264,1.264,0,0,0,0,2.526" transform="translate(1.698 3.516)"/>
              </g>
              <g id="g3831" transform="translate(37.757 18.553)">
                <path id="path3833" d="M-.478-.99a1.264,1.264,0,0,0,0-2.526,1.264,1.264,0,0,0,0,2.526" transform="translate(1.698 3.516)"/>
              </g>
              <g id="g3835" transform="translate(41.524 18.553)">
                <path id="path3837" d="M-.478-.99a1.264,1.264,0,0,0,0-2.526,1.264,1.264,0,0,0,0,2.526" transform="translate(1.698 3.516)"/>
              </g>
              <g id="g3839" transform="translate(41.673 1.263)">
                <path id="path3841" d="M-6.212-3.106a7.927,7.927,0,0,0-7.927-7.927,7.927,7.927,0,0,0-7.927,7.927,7.927,7.927,0,0,0,7.927,7.927,7.963,7.963,0,0,0,1.57-.156L-8.909,6.81V2.849A7.906,7.906,0,0,0-6.212-3.106Z" transform="translate(22.066 11.033)" fill="none"/>
              </g>
              <g id="g3843" transform="translate(47.536 7.17)">
                <path id="path3845" d="M0,0,4.129,4.129" fill="none"/>
              </g>
              <g id="g3847" transform="translate(47.536 7.17)">
                <path id="path3849" d="M-1.618,0-5.747,4.129" transform="translate(5.747)" fill="none"/>
              </g>
            </g>
          </g>
        </g>
      </g>
    </g>
  </g>
</svg>
