<svg xmlns="http://www.w3.org/2000/svg" xmlns:xlink="http://www.w3.org/1999/xlink" width="120" height="120" viewBox="0 0 120 120">
  <defs>
    <clipPath id="clip-path">
      <circle id="Ellipse_9" data-name="Ellipse 9" cx="60" cy="60" r="60" transform="translate(270 2395)" fill="#fff"/>
    </clipPath>
  </defs>
  <g id="yoga-icon" transform="translate(-270 -2395)">
    <circle id="Ellipse_8" data-name="Ellipse 8" cx="60" cy="60" r="60" transform="translate(270 2395)" fill="#fff"/>
    <g id="Mask_Group_45" data-name="Mask Group 45" clip-path="url(#clip-path)">
      <g id="fill-yoga" transform="translate(279.793 2404.793)">
        <g id="Flat" transform="translate(6.207 6.207)">
          <path id="Path_218" data-name="Path 218" d="M80.967,31.591H84l-1.518-3.035V16.415a6.07,6.07,0,0,0-6.07-6.07h-6.07V14.9L74.9,16.415v9.106A6.07,6.07,0,0,0,80.967,31.591Z" transform="translate(-23.298 -7.31)" fill="#61311c"/>
          <path id="Path_219" data-name="Path 219" d="M51.724,74.482l1.518,9.106-1.518,6.07H72.97l-1.518-6.07,1.518-9.106Z" transform="translate(-18.336 -24.401)" fill="#fec093"/>
          <path id="Path_220" data-name="Path 220" d="M41.248,95.171l-3.035,7.588-20.124,2.367a6.426,6.426,0,0,0,.751,12.809H84.9a6.426,6.426,0,0,0,.751-12.809L65.53,102.759l-3.035-7.588Z" transform="translate(-7.861 -29.914)" fill="#456186"/>
          <path id="Path_221" data-name="Path 221" d="M64.137,84.827h3.035v7.588H64.137Z" transform="translate(-21.644 -27.158)" fill="#f5a76e"/>
          <path id="Path_222" data-name="Path 222" d="M77.632,101.586a2.273,2.273,0,0,1-2.276,2.276H74.6L59.421,111.45l-12.184,2.77-21.2,4.818H18.55a6.174,6.174,0,1,1-.212-12.347l27.486-.948,10.563-.364.782-3.126a3.035,3.035,0,0,1,3.68-2.208l3.126.782,6.07-1.518h5.312A2.276,2.276,0,0,1,77.632,101.586Z" transform="translate(-7.822 -31.017)" fill="#f7b488"/>
          <path id="Path_223" data-name="Path 223" d="M47.237,116.557l-21.2,4.818H18.55a6.174,6.174,0,1,1-.212-12.347l27.486-.948Z" transform="translate(-7.822 -33.355)" fill="#456186"/>
          <path id="Path_224" data-name="Path 224" d="M96.287,113.084a6.254,6.254,0,0,1-6.293,5.954H82.633l-21.2-4.818-12.184-2.77-15.176-7.588h-.759a2.276,2.276,0,1,1,0-4.553h5.312l6.07,1.518,3.126-.781a3.035,3.035,0,0,1,3.68,2.208l.782,3.126,10.563.364,27.486.949a6.173,6.173,0,0,1,5.959,6.392Z" transform="translate(-12.823 -31.017)" fill="#fec093"/>
          <path id="Path_225" data-name="Path 225" d="M107.334,115.2a6.174,6.174,0,0,1-6.176,6.175H93.675l-21.2-4.818,1.413-8.476,27.486.949A6.173,6.173,0,0,1,107.334,115.2Z" transform="translate(-23.865 -33.355)" fill="#456186"/>
          <path id="Path_226" data-name="Path 226" d="M94.228,84.15V88.7l-4.553,1.518-2.381-.793-1.631-.544-.387-.129-2.637-.878-2.07-.691-4.553-5.463-.507-.607L65.394,68.974,62.358,52.281l-4.553,4.553H42.629l-4.553-4.553L35.041,68.974,24.925,81.115l-.507.607-4.553,5.463-2.07.691-2.637.878-.387.129-1.631.544-2.381.793L6.207,88.7V84.15l6.07-3.035A3.035,3.035,0,0,1,9.242,78.08h9.106l9.106-12.141,3.625-19.331a6.069,6.069,0,0,1,5.966-4.951h8.62V31.034H54.77V41.657h8.62a6.07,6.07,0,0,1,5.966,4.952l3.625,19.33L82.087,78.08h9.106a3.035,3.035,0,0,1-3.035,3.035Z" transform="translate(-6.207 -12.823)" fill="#fec093"/>
          <path id="Path_227" data-name="Path 227" d="M69.105,31.034v7.6a7.619,7.619,0,0,1-9.106,0v-7.6Z" transform="translate(-20.542 -12.823)" fill="#f5a76e"/>
          <path id="Path_228" data-name="Path 228" d="M54.391,27.058h2.656V21.81H54.391a2.624,2.624,0,1,0,0,5.249Z" transform="translate(-18.348 -10.365)" fill="#f7b488"/>
          <path id="Path_229" data-name="Path 229" d="M76.431,21.81H73.965v5.248h2.466a2.629,2.629,0,0,0,0-5.248Z" transform="translate(-24.263 -10.365)" fill="#f7b488"/>
          <path id="Path_230" data-name="Path 230" d="M63.45,32.143a7.225,7.225,0,0,1-7.071-5.22l-.227-.857a8.714,8.714,0,0,1-.29-2.229V19.588a7.6,7.6,0,0,1,15.176,0v4.249a8.708,8.708,0,0,1-.289,2.225l-.228.86A7.223,7.223,0,0,1,63.45,32.143Z" transform="translate(-19.439 -7.861)" fill="#fec093"/>
          <path id="Path_231" data-name="Path 231" d="M64.719,11.567a35.1,35.1,0,0,0,6.776,8.3A22.292,22.292,0,0,0,72,15.14a9.107,9.107,0,0,0-18.211,0,22.278,22.278,0,0,0,.17,2.745C56.769,16.89,60.766,16.465,64.719,11.567Z" transform="translate(-18.888 -6.207)" fill="#6e3c26"/>
          <path id="Path_232" data-name="Path 232" d="M71.91,66.763a7.774,7.774,0,0,0,0-12.141l-1.518-9.106H67.357l-.625,3.124a5.554,5.554,0,0,1-10.891,0l-.625-3.124H52.181l-1.518,9.106a7.774,7.774,0,0,0,0,12.141Z" transform="translate(-17.276 -16.682)" fill="#2a4261"/>
        </g>
      </g>
    </g>
  </g>
</svg>
